<?xml version="1.0" standalone="no"?>
<!DOCTYPE svg PUBLIC "-//W3C//DTD SVG 1.1//EN" "http://www.w3.org/Graphics/SVG/1.1/DTD/svg11.dtd" >
<svg xmlns="http://www.w3.org/2000/svg">
<metadata></metadata>
<defs>
<font id="adihaus_cyr_mdregular" horiz-adv-x="1091" >
<font-face units-per-em="2048" ascent="1638" descent="-410" />
<missing-glyph horiz-adv-x="491" />
<glyph unicode="&#xd;" horiz-adv-x="491" />
<glyph unicode=" "  horiz-adv-x="491" />
<glyph unicode="&#x09;" horiz-adv-x="491" />
<glyph unicode="&#xa0;" horiz-adv-x="491" />
<glyph unicode="!" horiz-adv-x="679" d="M248 1458h254l-45 -1024h-164zM260 0v223h229v-223h-229z" />
<glyph unicode="&#x22;" horiz-adv-x="909" d="M160 1067v391h207v-391h-207zM543 1067v391h207v-391h-207z" />
<glyph unicode="#" horiz-adv-x="1376" d="M139 426v192h193l41 254h-166v193h194l64 401h219l-63 -401h278l64 401h217l-64 -401h160v-193h-189l-40 -254h161v-192h-192l-68 -426h-217l68 426h-281l-65 -426h-220l68 426h-162zM549 618h280l39 254h-278z" />
<glyph unicode="$" horiz-adv-x="1245" d="M61 180l148 146q74 -74 157 -105t181 -35v455l-53 6q-88 10 -159 43t-116 74q-109 102 -108 278q0 176 109.5 291t307.5 133v185h168v-183q123 -8 215.5 -47t175.5 -116l-141 -140q-53 51 -121.5 78t-146.5 33v-442l70 -11q102 -16 163.5 -41.5t108.5 -66.5 q59 -53 89 -129t30 -170q0 -92 -32 -166t-90.5 -127t-140 -87t-180.5 -42v-227h-168v221q-147 6 -257.5 50t-209.5 142zM326 1051q0 -41 13 -75t42 -61q33 -29 76 -45t90 -22v426q-109 -10 -165 -71.5t-56 -151.5zM678 190q115 10 178.5 67t63.5 153q0 100 -58 151 q-41 37 -86 46t-98 18v-435z" />
<glyph unicode="%" horiz-adv-x="1724" d="M119 985v207q0 66 22.5 118t61.5 88t91 55.5t112 19.5q59 0 111 -19.5t91 -55.5t61.5 -88.5t22.5 -117.5v-207q0 -66 -22.5 -118t-61.5 -88t-91 -54t-111 -18t-111.5 18t-91.5 54t-61.5 88.5t-22.5 117.5zM276 991q0 -145 130 -145q66 0 97.5 38t31.5 107v195 q0 70 -32 108.5t-97 38.5q-66 0 -98 -38t-32 -109v-195zM434 0l688 1458h166l-686 -1458h-168zM1032 266v207q0 66 22.5 118t61.5 88t91.5 55.5t111.5 19.5t111.5 -19.5t91.5 -55.5t61.5 -88t22.5 -118v-207q0 -66 -22.5 -118t-61.5 -87.5t-91.5 -55t-111.5 -19.5 t-111.5 19.5t-91.5 55t-61.5 88t-22.5 117.5zM1190 272q0 -72 31.5 -109.5t97.5 -37.5t97.5 39t31.5 108v195q0 70 -32 108.5t-97 38.5q-66 0 -97.5 -37.5t-31.5 -109.5v-195z" />
<glyph unicode="&#x26;" horiz-adv-x="1495" d="M139 422q0 76 24.5 136t65.5 109.5t93.5 90.5t105.5 76q-25 29 -51.5 62.5t-49 72.5t-37 83t-14.5 95q0 70 26 129t72 102t111.5 67.5t147.5 24.5q78 0 141.5 -24.5t109.5 -68.5t70.5 -103.5t24.5 -128.5q0 -86 -43 -148.5t-113 -109.5q-20 -16 -41 -29 q-16 -12 -34.5 -23.5t-30.5 -21.5l307 -367q41 57 58.5 125t19.5 168h201q-4 -141 -38 -251.5t-108 -196.5l244 -291h-268l-119 143q-25 -20 -59.5 -46.5t-84 -51.5t-114 -41t-146.5 -16q-229 0 -350 117.5t-121 316.5zM346 426q0 -111 75 -179.5t189 -68.5q74 0 140.5 23.5 t138.5 89.5l-346 411q-41 -29 -76 -56.5t-62.5 -59t-43 -70.5t-15.5 -90zM489 1145q0 -45 29 -90t84 -111q18 10 43 29l27 18q43 29 74.5 65t31.5 87q0 61 -40 103t-105 42q-68 0 -106 -41t-38 -102z" />
<glyph unicode="'" horiz-adv-x="526" d="M160 1067v391h207v-391h-207z" />
<glyph unicode="(" horiz-adv-x="649" d="M176 240v979q0 61 7 120.5t40 116.5q31 55 74 100.5t92 94.5l141 -142l-64.5 -64.5t-49.5 -70.5q-31 -59 -31 -168v-954q0 -111 31 -168q23 -43 50.5 -70.5t63.5 -64.5l-141 -142q-49 49 -92 94.5t-74 100.5q-33 57 -40 116.5t-7 121.5z" />
<glyph unicode=")" horiz-adv-x="649" d="M119 -49q37 37 63.5 64.5t48.5 70.5q31 57 31 166v954q0 106 -31 166q-23 43 -49 70.5t-63 64.5l143 144q49 -49 91 -94.5t73 -100.5q33 -57 41 -116.5t8 -120.5v-979q0 -61 -8 -121t-41 -117q-31 -55 -73 -100t-91 -95z" />
<glyph unicode="*" horiz-adv-x="993" d="M125 954l235 125l-235 127l76 133l227 -141l-8 266h153l-8 -266l228 141l75 -133l-235 -127l235 -125l-75 -133l-228 142l8 -269h-153l8 269l-227 -142z" />
<glyph unicode="+" d="M104 461v194h345v342h194v-342h344v-194h-344v-344h-194v344h-345z" />
<glyph unicode="," horiz-adv-x="557" d="M160 238h237v-361l-237 -194v555z" />
<glyph unicode="-" horiz-adv-x="872" d="M137 471v195h598v-195h-598z" />
<glyph unicode="." horiz-adv-x="569" d="M160 0v250h250v-250h-250z" />
<glyph unicode="/" horiz-adv-x="778" d="M0 -152l584 1762h200l-583 -1762h-201z" />
<glyph unicode="0" d="M125 406v647q0 98 32.5 175t90 131t134.5 82.5t163 28.5t162.5 -28.5t134 -82.5t91.5 -131t34 -175v-647q0 -98 -34 -175t-91.5 -131.5t-134 -83t-162.5 -28.5t-163 28.5t-134.5 83t-90 131t-32.5 175.5zM334 412q0 -106 55 -172t156 -66q100 0 156.5 65.5t56.5 172.5 v635q0 106 -56.5 171.5t-156.5 65.5t-155.5 -65.5t-55.5 -171.5v-635z" />
<glyph unicode="1" d="M233 981v231l285 246h209v-1458h-209v1231z" />
<glyph unicode="2" d="M129 0v186l561 682q41 51 59.5 95.5t18.5 99.5q0 98 -55.5 159.5t-157.5 61.5q-41 0 -80 -12t-68.5 -39t-48 -70t-18.5 -104h-209q0 92 32 169t88 130t134 82.5t170 29.5q94 0 172 -28.5t133 -81.5t86 -129t31 -170q0 -96 -35 -165t-102 -151l-457 -559h594v-186h-848z " />
<glyph unicode="3" d="M92 395h209q2 -59 23.5 -100t53.5 -68.5t74 -40t87 -12.5q102 0 169.5 62.5t67.5 179.5q0 111 -60.5 175t-183.5 64h-34v183h34q115 0 168.5 60t53.5 161q0 111 -62.5 168t-152.5 57q-96 0 -153.5 -55t-66.5 -154h-208q4 92 38.5 166t92 125t133.5 79t164 28 q92 0 169.5 -30t134 -84t88.5 -129t32 -165q0 -117 -48.5 -193.5t-134.5 -117.5q94 -41 149.5 -125t55.5 -219q0 -104 -36 -184.5t-96 -133.5t-141 -79.5t-173 -26.5q-88 0 -167 23.5t-140.5 73.5t-99.5 128t-40 184z" />
<glyph unicode="4" d="M72 219v195l514 1044h225l-512 -1044h363v340h202v-340h156v-195h-156v-219h-202v219h-590z" />
<glyph unicode="5" d="M129 377h209q12 -98 63.5 -150.5t149.5 -52.5q94 0 151 57q47 47 58.5 115t11.5 141q0 66 -9 121.5t-33.5 96t-65.5 64.5t-105 24q-90 0 -140 -39t-67 -92h-190v796h786v-186h-598v-385q37 39 99.5 61.5t142.5 22.5q86 0 151.5 -24.5t110.5 -69.5q41 -41 66.5 -88.5 t39 -96.5t17.5 -101.5t4 -103.5q0 -117 -21.5 -212t-101.5 -175q-49 -49 -125 -81.5t-182 -32.5q-104 0 -184 32.5t-127 79.5q-59 59 -82 130t-29 149z" />
<glyph unicode="6" d="M115 424q0 90 30.5 176t77.5 182l332 676h223l-313 -627q29 12 61.5 17.5t67.5 5.5q80 0 149.5 -29.5t122 -85t82 -133.5t29.5 -174q0 -100 -32 -182t-89 -140.5t-136 -90t-173 -31.5t-174 29.5t-137.5 87t-89 137.5t-31.5 182zM324 428q0 -117 61 -185.5t160 -68.5 q98 0 160.5 68.5t62.5 185.5q0 109 -59.5 180.5t-163.5 71.5q-98 0 -159.5 -66.5t-61.5 -185.5z" />
<glyph unicode="7" d="M129 1042v416h868v-186l-487 -1272h-225l489 1272h-444v-230h-201z" />
<glyph unicode="8" d="M96 412q0 66 17.5 119t45 95t63.5 73.5t75 54.5q-72 43 -124 119.5t-52 193.5q0 92 32.5 166t90 127t134.5 81.5t167 28.5q88 0 165.5 -28.5t136 -81.5t91.5 -127t33 -166q0 -117 -52.5 -193.5t-123.5 -119.5q39 -23 74.5 -54.5t63.5 -73.5t45 -95t17 -119 q0 -98 -34.5 -177t-96 -134.5t-143.5 -84t-176 -28.5t-176 28.5t-142.5 84t-95.5 134t-35 177.5zM305 416q0 -51 18.5 -95.5t50.5 -77t76 -51t95 -18.5t94 18.5t76 51t51 77t18 95.5t-18 95t-51 77t-76 52t-94 19t-95 -19t-76 -52t-50.5 -77t-18.5 -95zM330 1061 q0 -98 59.5 -159.5t155.5 -61.5t156.5 61.5t60.5 159.5q0 96 -60.5 159.5t-156.5 63.5t-155.5 -63.5t-59.5 -159.5z" />
<glyph unicode="9" d="M115 1026q0 100 31.5 182t89 140.5t136.5 90t173 31.5t174 -29.5t137 -87t89 -138.5t32 -181q0 -90 -31 -176t-78 -182l-331 -676h-224l314 627q-29 -12 -63 -17.5t-68 -5.5q-80 0 -148.5 30t-121 85t-82 133t-29.5 174zM324 1030q0 -109 58 -180.5t163 -71.5 q98 0 160.5 66.5t62.5 185.5q0 117 -62.5 185.5t-160.5 68.5t-159.5 -68.5t-61.5 -185.5z" />
<glyph unicode=":" horiz-adv-x="620" d="M213 0v250h248v-250h-248zM213 584v250h248v-250h-248z" />
<glyph unicode=";" horiz-adv-x="620" d="M213 584v250h248v-250h-248zM217 238h238v-361l-238 -194v555z" />
<glyph unicode="&#x3c;" d="M168 475v187l756 362v-221l-502 -236l502 -233v-221z" />
<glyph unicode="=" d="M104 272v195h883v-195h-883zM104 670v194h883v-194h-883z" />
<glyph unicode="&#x3e;" d="M168 113v221l502 233l-502 236v221l756 -362v-187z" />
<glyph unicode="?" horiz-adv-x="1046" d="M145 1077q0 86 31 159t86 125t130 80.5t161 28.5q84 0 158.5 -27.5t130 -77.5t88.5 -123t33 -163q0 -74 -29 -134t-70 -118l-157 -221q-16 -23 -26.5 -54.5t-10.5 -55.5v-62h-209v72q0 63 16.5 108t52.5 95l160 215q29 37 46.5 74.5t17.5 80.5q0 86 -55.5 145.5 t-145.5 59.5q-96 0 -147.5 -61.5t-51.5 -145.5h-209zM449 0v223h231v-223h-231z" />
<glyph unicode="@" horiz-adv-x="1796" d="M174 729q0 158 60.5 294t163 235.5t237.5 155.5t285 56q141 0 269 -45t225 -128t153.5 -200.5t56.5 -260.5q0 -90 -31.5 -184.5t-89 -171.5t-138.5 -125t-179 -48q-78 0 -118 38t-48 89q-25 -47 -79 -87t-140 -40q-61 0 -110.5 25.5t-84.5 71t-53 107.5t-18 134 q0 86 20 173t63.5 155.5t108 112.5t150.5 44q47 0 81.5 -11t59 -27.5t39 -37t22.5 -38.5l17 98h174l-70 -510q-2 -18 -4 -40.5t1 -44t12.5 -36t29.5 -14.5q47 0 86 35t65.5 89t41 117.5t14.5 123.5q0 113 -43 199.5t-117 146t-170 91.5t-203 32q-117 0 -217 -44.5 t-173.5 -121t-117 -181t-43.5 -227.5q0 -135 45.5 -241.5t123 -182.5t181 -115.5t220.5 -39.5q66 0 132 8t125.5 21.5t109 31.5t83.5 39l74 -139q-96 -59 -237.5 -91t-296.5 -32q-152 0 -288 51t-238.5 147.5t-162 233.5t-59.5 309zM725 670q0 -35 4 -71t15.5 -64.5t33 -47 t56.5 -18.5q51 0 91 28.5t66.5 78t39.5 112.5t13 131q0 66 -46 108t-113 42q-41 0 -71 -33t-49.5 -79t-29.5 -97t-10 -90z" />
<glyph unicode="A" horiz-adv-x="1280" d="M16 0l535 1458h178l535 -1458h-236l-100 293h-576l-100 -293h-236zM418 481h448l-221 647z" />
<glyph unicode="B" horiz-adv-x="1357" d="M190 0v1458h568q205 0 322.5 -106.5t117.5 -292.5q0 -59 -17.5 -109.5t-45 -90.5t-62.5 -67.5t-72 -41.5q43 -16 82 -46t70 -71t49.5 -96t18.5 -125q0 -100 -33 -177t-91.5 -129.5t-139 -79t-177.5 -26.5h-590zM412 199h348q117 0 178 62.5t61 160.5t-61 159.5t-178 61.5 h-348v-444zM412 842h327q106 0 172 53.5t66 155.5t-65.5 155.5t-172.5 53.5h-327v-418z" />
<glyph unicode="C" horiz-adv-x="1286" d="M137 729q0 104 2 189.5t15.5 155t42 129t82.5 112.5q76 76 172 115.5t211 39.5q203 0 342 -114.5t178 -333.5h-226q-27 111 -99.5 180.5t-194.5 69.5q-66 0 -121.5 -23.5t-94.5 -64.5q-27 -29 -44 -63t-26 -84t-13.5 -123.5t-4.5 -184.5t4.5 -184.5t13.5 -123.5t26.5 -84 t43.5 -63q39 -41 94.5 -64.5t121.5 -23.5q123 0 196.5 70t99.5 180h224q-18 -109 -64.5 -192.5t-115 -141t-155.5 -86t-185 -28.5q-115 0 -211.5 40t-171.5 115q-53 53 -82 112.5t-42.5 129.5t-15.5 155t-2 189z" />
<glyph unicode="D" horiz-adv-x="1363" d="M190 0v1458h512q115 0 211.5 -33.5t165.5 -103.5q59 -59 90 -128t43.5 -143.5t13.5 -152.5t1 -158t-1 -161.5t-13.5 -159.5t-43 -149.5t-90.5 -131.5q-70 -70 -166 -103.5t-211 -33.5h-512zM412 199h268q158 0 248 98q57 63 67.5 176.5t10.5 265.5t-10.5 255.5 t-67.5 166.5q-90 98 -248 99h-268v-1061z" />
<glyph unicode="E" horiz-adv-x="1234" d="M190 0v1458h932v-198h-710v-426h606v-197h-606v-438h710v-199h-932z" />
<glyph unicode="F" horiz-adv-x="1198" d="M190 0v1458h932v-198h-710v-445h606v-199h-606v-616h-222z" />
<glyph unicode="G" horiz-adv-x="1329" d="M137 729q0 104 2 189.5t15.5 155t42 129t82.5 112.5q76 76 171 115.5t212 39.5t208 -35.5t157.5 -97t107.5 -143.5t57 -176h-223q-29 121 -107 187.5t-200 66.5q-66 0 -121.5 -24.5t-94.5 -65.5q-27 -29 -44 -63t-26 -84t-13.5 -122.5t-4.5 -183.5t4.5 -184.5 t13.5 -123.5t26.5 -84t43.5 -63q39 -41 94.5 -64.5t121.5 -23.5q72 0 133 27t104 76q41 47 57.5 102t16.5 127v82h-311v188h532v-223q0 -141 -29.5 -237.5t-101.5 -173.5q-84 -88 -184.5 -127t-216.5 -39q-115 0 -211.5 40t-171.5 115q-53 53 -82 112.5t-42.5 129.5 t-15.5 155t-2 189z" />
<glyph unicode="H" horiz-adv-x="1415" d="M190 0v1458h222v-622h592v622h221v-1458h-221v637h-592v-637h-222z" />
<glyph unicode="I" horiz-adv-x="602" d="M190 0v1458h222v-1458h-222z" />
<glyph unicode="J" horiz-adv-x="1036" d="M27 129l147 145q39 -39 83 -63.5t124 -24.5q123 0 193.5 74t70.5 217v981h221v-997q0 -115 -37.5 -203t-104.5 -147.5t-155 -91t-188 -31.5q-113 0 -196 32.5t-158 108.5z" />
<glyph unicode="K" horiz-adv-x="1347" d="M190 0v1458h222v-733l596 733h270l-473 -571l522 -887h-260l-410 719l-245 -295v-424h-222z" />
<glyph unicode="L" horiz-adv-x="1175" d="M190 0v1458h222v-1259h702v-199h-924z" />
<glyph unicode="M" horiz-adv-x="1665" d="M190 0v1458h222l426 -907l417 907h222v-1458h-222v975l-335 -711h-164l-344 711v-975h-222z" />
<glyph unicode="N" horiz-adv-x="1478" d="M190 0v1458h203l674 -1024v1024h221v-1458h-203l-673 1026v-1026h-222z" />
<glyph unicode="O" horiz-adv-x="1323" d="M137 729q0 104 2 189.5t15.5 155t42 129t82.5 112.5q76 76 171 115.5t212 39.5t213 -39.5t172 -115.5q53 -53 81.5 -112.5t41 -129t14.5 -155t2 -189.5t-2 -189t-14.5 -155t-41 -129t-81.5 -113q-76 -76 -172.5 -115.5t-212.5 -39.5q-117 0 -212.5 40t-170.5 115 q-53 53 -82 112.5t-42.5 129.5t-15.5 155t-2 189zM358 729q0 -111 3.5 -183.5t12.5 -122.5t26.5 -84t43.5 -63q39 -41 95.5 -65.5t122.5 -24.5t122 25t95 65q27 29 44 63t26 84t12.5 122.5t3.5 183.5t-3.5 183.5t-12.5 122.5t-26.5 84t-43.5 63q-39 41 -95.5 65.5 t-121.5 24.5q-66 0 -122.5 -24.5t-95.5 -65.5q-27 -29 -44 -63t-26 -84t-12.5 -122.5t-3.5 -183.5z" />
<glyph unicode="P" horiz-adv-x="1288" d="M190 0v1458h553q106 0 192.5 -33.5t148 -92t94 -140.5t32.5 -176q0 -96 -32.5 -177t-94 -139.5t-147.5 -92.5t-193 -34h-331v-573h-222zM412 774h319q117 0 187.5 62.5t70.5 179.5t-70.5 180.5t-187.5 63.5h-319v-486z" />
<glyph unicode="Q" horiz-adv-x="1323" d="M137 729q0 104 2 189.5t15.5 155t42 129t82.5 112.5q76 76 171 115.5t212 39.5t213 -39.5t172 -115.5q53 -53 81.5 -112.5t41 -129t14.5 -154.5t2 -190q0 -92 -1 -169t-10.5 -140.5t-28 -117.5t-54.5 -103l143 -142l-123 -123l-145 146q-63 -45 -141 -68.5t-164 -23.5 q-117 0 -212.5 40t-170.5 115q-53 53 -82 112.5t-42.5 129.5t-15.5 155t-2 189zM358 729q0 -111 3.5 -183.5t12.5 -122.5t26.5 -84t43.5 -63q39 -41 95.5 -65.5t122.5 -24.5q84 0 149 47l-154 154l123 123l142 -141q29 55 36 137t7 223q0 111 -3.5 183.5t-12.5 122.5 t-26.5 84t-43.5 63q-39 41 -95.5 65.5t-121.5 24.5q-66 0 -122.5 -24.5t-95.5 -65.5q-27 -29 -44 -63t-26 -84t-12.5 -122.5t-3.5 -183.5z" />
<glyph unicode="R" horiz-adv-x="1341" d="M190 0v1458h566q104 0 187 -31.5t142.5 -88t91 -135.5t31.5 -171q0 -158 -84 -255t-206 -132l335 -645h-258l-307 614h-276v-614h-222zM412 803h327q111 0 179.5 59t68.5 168t-68.5 169.5t-179.5 60.5h-327v-457z" />
<glyph unicode="S" horiz-adv-x="1208" d="M61 180l148 146q80 -80 170 -110t203 -30q143 0 222 58.5t79 165.5q0 100 -58 151q-29 27 -61.5 39t-97.5 23l-172 24q-178 25 -277 117q-106 100 -106 278q0 94 33.5 173t96 136.5t152.5 88t205 30.5q145 0 251.5 -38.5t201.5 -126.5l-142 -140q-68 66 -146.5 89.5 t-170.5 23.5q-129 0 -197.5 -64.5t-68.5 -162.5q0 -41 13 -75t42 -61q57 -51 164 -67l166 -25q102 -16 163.5 -41.5t108.5 -66.5q59 -53 89 -129t30 -170q0 -100 -39 -180t-108.5 -135.5t-166 -84t-210.5 -28.5q-166 0 -289 43t-228 149z" />
<glyph unicode="T" horiz-adv-x="1146" d="M61 1260v198h1024v-198h-401v-1260h-221v1260h-402z" />
<glyph unicode="U" horiz-adv-x="1382" d="M168 492v966h221v-956q0 -147 82 -231.5t219 -84.5t220 84t83 232v956h221v-966q0 -113 -39.5 -206t-110.5 -159t-167 -102.5t-207 -36.5t-207 36.5t-165.5 102.5t-109.5 159t-40 206z" />
<glyph unicode="V" horiz-adv-x="1155" d="M10 1458h230l335 -1061l336 1061h234l-483 -1458h-173z" />
<glyph unicode="W" horiz-adv-x="1783" d="M23 1458h233l254 -1042l293 1042h178l293 -1042l254 1042h233l-381 -1458h-192l-297 1022l-295 -1022h-193z" />
<glyph unicode="X" horiz-adv-x="1183" d="M20 0l451 748l-422 710h254l287 -522l289 522h254l-422 -710l452 -748h-256l-317 559l-316 -559h-254z" />
<glyph unicode="Y" horiz-adv-x="1114" d="M10 1458h242l305 -641l305 641h242l-436 -858v-600h-222v600z" />
<glyph unicode="Z" horiz-adv-x="1130" d="M98 0v190l674 1070h-645v198h905v-180l-678 -1079h678v-199h-934z" />
<glyph unicode="[" horiz-adv-x="710" d="M176 -152v1762h447v-187h-238v-1388h238v-187h-447z" />
<glyph unicode="\" horiz-adv-x="778" d="M0 1593h201l577 -1745h-200z" />
<glyph unicode="]" horiz-adv-x="710" d="M88 33h242v1392h-242v185h447v-1762h-447v185z" />
<glyph unicode="^" horiz-adv-x="1169" d="M137 821l352 652h191l350 -652h-217l-229 424l-230 -424h-217z" />
<glyph unicode="_" horiz-adv-x="1169" d="M0 -209h1169v-143h-1169v143z" />
<glyph unicode="`" horiz-adv-x="1024" d="M233 1559h232l153 -332h-157z" />
<glyph unicode="a" horiz-adv-x="1085" d="M88 305q0 131 89 215t269 84h275v74q0 98 -52.5 146t-174.5 48q-86 0 -135.5 -22.5t-92.5 -77.5l-137 129q74 86 159 118t214 32q428 0 428 -357v-694h-205v94q-57 -57 -118.5 -81.5t-157.5 -24.5q-98 0 -165 23.5t-114 70.5q-82 86 -82 223zM291 309q0 -72 46 -109.5 t144 -37.5q59 0 106.5 9t88.5 50q45 45 45 154v84h-244q-92 0 -139 -39t-47 -111z" />
<glyph unicode="b" horiz-adv-x="1132" d="M166 0v1458h209v-524q57 68 122.5 92.5t149.5 24.5q78 0 143.5 -25t108.5 -68q39 -39 62.5 -90t36 -108.5t15.5 -119t3 -120.5t-3 -120.5t-15.5 -120t-36 -109.5t-62.5 -90q-43 -43 -109.5 -67.5t-144.5 -24.5q-86 0 -150.5 25.5t-123.5 97.5v-111h-205zM375 520 q0 -70 7 -132t30.5 -110.5t65.5 -76t114 -27.5q70 0 113 27.5t65.5 76t29.5 110.5t7 132t-7 132.5t-29.5 109.5t-65.5 74.5t-113 27.5q-72 0 -114 -27.5t-65.5 -74.5t-30.5 -109.5t-7 -132.5z" />
<glyph unicode="c" horiz-adv-x="993" d="M113 520q0 145 40 246.5t104.5 164t147 91.5t170.5 29q109 0 189 -34t154 -112l-144 -139q-49 53 -93 75.5t-106 22.5q-123 0 -192 -92q-35 -43 -48 -101.5t-13 -150.5t13 -151.5t48 -102.5q70 -92 192 -92q61 0 105.5 22.5t93.5 75.5l144 -137q-74 -78 -154 -112.5 t-189 -34.5q-88 0 -170.5 28.5t-147 92t-104.5 165t-40 246.5z" />
<glyph unicode="d" horiz-adv-x="1132" d="M117 520q0 59 3 120.5t15 119t36 109t62 89.5q43 43 109 68t143 25q84 0 149.5 -25t123.5 -92v524h209v-1458h-205v111q-59 -72 -124 -97.5t-151 -25.5q-78 0 -144.5 24.5t-109.5 67.5q-39 39 -62.5 90t-35.5 109.5t-15 120t-3 120.5zM326 520q0 -70 7 -132t30.5 -110.5 t65.5 -76t114 -27.5q70 0 112.5 27.5t65 76t30 110.5t7.5 132t-7.5 132.5t-30 109.5t-65.5 74.5t-112 27.5q-72 0 -114 -27.5t-65.5 -74.5t-30.5 -109.5t-7 -132.5z" />
<glyph unicode="e" horiz-adv-x="1103" d="M113 520q0 254 119.5 392.5t320.5 138.5q104 0 186 -37t138.5 -102.5t86 -157.5t29.5 -203v-92h-674q0 -135 68 -213t197 -78q88 0 142 25.5t110 80.5l133 -124q-41 -41 -81 -71t-86 -50.5t-100.5 -30.5t-121.5 -10q-98 0 -183.5 27.5t-148 90t-99 165t-36.5 249.5z M319 604h467q-2 47 -7 77t-21 64q-25 59 -78 95.5t-127 36.5t-128 -36t-79 -96q-16 -35 -20 -64.5t-7 -76.5z" />
<glyph unicode="f" horiz-adv-x="671" d="M80 860v160h119v160q0 55 17 107t52 92t88.5 64.5t126.5 24.5h131v-178h-92q-59 0 -86.5 -31.5t-27.5 -89.5v-149h206v-160h-206v-860h-209v860h-119z" />
<glyph unicode="g" horiz-adv-x="1124" d="M117 539q0 133 20.5 239.5t95.5 182.5q90 90 250 90q84 0 148.5 -26t124.5 -97v110h202v-1032q0 -96 -30.5 -176t-88 -138.5t-139.5 -91t-186 -32.5q-119 0 -202 30.5t-165 106.5l134 133q49 -47 98 -69.5t127 -22.5q66 0 112 21.5t75.5 58.5t43 84t13.5 100v133 q-57 -68 -123 -93t-146 -25q-78 0 -141.5 24.5t-106.5 67.5q-76 76 -96 182.5t-20 239.5zM326 539q0 -61 7 -120t28.5 -105t63.5 -73.5t114 -27.5q70 0 111.5 27.5t64 73.5t29 105t6.5 120t-6.5 119.5t-29 104.5t-64.5 73.5t-111 27.5q-72 0 -114 -27.5t-63.5 -73.5 t-28.5 -104.5t-7 -119.5z" />
<glyph unicode="h" horiz-adv-x="1159" d="M166 0v1458h209v-524q53 59 121.5 88t146.5 29q86 0 153.5 -28t113.5 -78t70 -120.5t24 -154.5v-670h-209v637q0 119 -60.5 173t-148.5 54t-149.5 -55t-61.5 -172v-637h-209z" />
<glyph unicode="i" horiz-adv-x="540" d="M160 1243v221h221v-221h-221zM166 0v1038h209v-1038h-209z" />
<glyph unicode="j" horiz-adv-x="540" d="M-39 -246h92q63 0 88 31t25 90v1163h209v-1175q0 -57 -16.5 -109.5t-51.5 -91.5t-89 -62.5t-128 -23.5h-129v178zM160 1243v221h221v-221h-221z" />
<glyph unicode="k" horiz-adv-x="1122" d="M166 0v1458h209v-899l403 479h254l-360 -407l405 -631h-258l-291 479l-153 -174v-305h-209z" />
<glyph unicode="l" horiz-adv-x="636" d="M160 287v1171h209v-1159q0 -59 24.5 -90t87.5 -31h92v-178h-129q-74 0 -128 23.5t-88.5 62.5t-51 91t-16.5 110z" />
<glyph unicode="m" horiz-adv-x="1796" d="M166 0v1038h205v-104q53 57 125.5 87t150.5 30q197 0 295 -152q125 152 326 152q80 0 147.5 -25t114.5 -70q59 -59 84.5 -131.5t25.5 -160.5v-664h-208v633q0 121 -60.5 176t-148.5 55q-43 0 -82 -13t-69 -41t-47 -70t-17 -97v-643h-209v633q0 121 -60.5 176t-148.5 55 t-151.5 -56t-63.5 -175v-633h-209z" />
<glyph unicode="n" horiz-adv-x="1163" d="M166 0v1038h205v-104q53 59 125.5 88t150.5 29q80 0 144.5 -25t111.5 -70q59 -59 82 -131.5t23 -160.5v-664h-209v633q0 121 -60.5 176t-148.5 55t-151.5 -56t-63.5 -175v-633h-209z" />
<glyph unicode="o" horiz-adv-x="1099" d="M117 520q0 131 24.5 230.5t98.5 177.5q51 53 126.5 88t182.5 35q106 0 183 -35t128 -88q74 -78 98.5 -177.5t24.5 -230.5q0 -133 -24.5 -232.5t-98.5 -176.5q-51 -53 -128 -88t-183 -35t-182 34.5t-127 88.5q-74 78 -98.5 177t-24.5 232zM326 520q0 -86 12 -161.5 t59 -122.5q61 -61 152 -62q92 0 153 62q47 47 59.5 122.5t12.5 161.5t-12 162t-60 123q-59 59 -153 59q-92 0 -152 -59q-47 -47 -59 -123t-12 -162z" />
<glyph unicode="p" horiz-adv-x="1132" d="M166 -420v1458h205v-110q59 72 123.5 97.5t150.5 25.5q78 0 144.5 -25t109.5 -68q39 -39 62.5 -90t36 -108.5t15.5 -119t3 -120.5t-3 -120.5t-15.5 -120t-36 -109.5t-62.5 -90q-43 -43 -108.5 -67.5t-143.5 -24.5q-84 0 -149.5 25.5t-122.5 92.5v-526h-209zM375 520 q0 -70 7 -132t30.5 -110.5t65.5 -76t114 -27.5q70 0 113 27.5t65.5 76t29.5 110.5t7 132t-7 132.5t-29.5 109.5t-65.5 74.5t-113 27.5q-72 0 -114 -27.5t-65.5 -74.5t-30.5 -109.5t-7 -132.5z" />
<glyph unicode="q" horiz-adv-x="1132" d="M117 520q0 59 3 120.5t15 119t36 109t62 89.5q43 43 110 68t144 25q86 0 150.5 -26t124.5 -97v110h205v-1458h-209v526q-57 -68 -123 -93t-150 -25q-78 0 -143.5 24.5t-108.5 67.5q-39 39 -62.5 90t-35.5 109.5t-15 120t-3 120.5zM326 520q0 -70 7 -132t30.5 -110.5 t65.5 -76t114 -27.5q70 0 112.5 27.5t65 76t30 110.5t7.5 132t-7.5 132.5t-30 109.5t-65.5 74.5t-112 27.5q-72 0 -114 -27.5t-65.5 -74.5t-30.5 -109.5t-7 -132.5z" />
<glyph unicode="r" horiz-adv-x="899" d="M166 0v1038h205v-112q41 55 114.5 90t161.5 35q76 0 135.5 -22.5t112.5 -76.5l-158 -157q-35 35 -68.5 52t-86.5 17q-86 0 -146.5 -62.5t-60.5 -170.5v-631h-209z" />
<glyph unicode="s" horiz-adv-x="1021" d="M66 137l137 137q63 -66 142 -87t157 -21q96 0 161.5 35t65.5 108q0 53 -31.5 85t-107.5 38l-166 14q-147 12 -227 81t-80 206q0 76 30.5 135.5t84 99.5t124 61.5t152.5 21.5q117 0 215 -27t170 -90l-131 -133q-49 41 -115.5 58.5t-140.5 17.5q-94 0 -141.5 -37t-47.5 -97 q0 -47 30 -78.5t114 -39.5l164 -15q147 -12 228 -83t81 -210q0 -82 -33 -143t-90 -103t-137 -62.5t-172 -20.5q-127 0 -235.5 29.5t-200.5 119.5z" />
<glyph unicode="t" horiz-adv-x="700" d="M72 860v160h118v315h209v-315h201v-160h-201v-561q0 -57 28 -89t87 -32h86v-178h-125q-74 0 -127 24.5t-88 64.5t-52.5 92t-17.5 108v571h-118z" />
<glyph unicode="u" horiz-adv-x="1163" d="M156 375v663h209v-632q0 -121 60 -176.5t148 -55.5q43 0 83 13.5t69 42t46 72.5t17 104v632h209v-1038h-204v104q-53 -59 -126 -87.5t-151 -28.5q-80 0 -144.5 24.5t-111.5 69.5q-59 59 -81.5 132t-22.5 161z" />
<glyph unicode="v" horiz-adv-x="964" d="M16 1038h222l245 -731l244 731h221l-381 -1038h-170z" />
<glyph unicode="w" horiz-adv-x="1521" d="M16 1038h222l200 -731l242 731h162l239 -731l201 731h223l-323 -1038h-178l-244 725l-242 -725h-180z" />
<glyph unicode="x" horiz-adv-x="1030" d="M45 0l356 530l-342 508h252l205 -338l203 338h252l-340 -508l354 -530h-252l-217 354l-219 -354h-252z" />
<glyph unicode="y" horiz-adv-x="958" d="M16 1038h222l247 -731l242 731h223l-458 -1245q-29 -82 -76 -129q-43 -43 -98.5 -59.5t-114.5 -16.5h-84v189h53q66 0 96.5 23.5t53.5 86.5l57 162z" />
<glyph unicode="z" horiz-adv-x="960" d="M88 0v166l516 686h-487v186h745v-166l-520 -686h520v-186h-774z" />
<glyph unicode="{" horiz-adv-x="833" d="M92 637v184h76q35 0 58.5 11.5t39.5 27.5q37 37 37 123v342q0 74 16.5 124t57.5 91q35 35 88 52.5t131 17.5h145v-187h-79q-49 0 -76 -6t-43 -22t-23.5 -47t-7.5 -84v-330q0 -49 -12.5 -84t-30.5 -57.5t-43 -38t-49 -25.5q25 -10 49.5 -25.5t42.5 -38t30.5 -57.5 t12.5 -84v-329q0 -53 7 -84t24 -48q16 -16 42.5 -22t76.5 -6h79v-187h-145q-78 0 -131 17.5t-88 52.5q-41 41 -57.5 91t-16.5 124v342q0 86 -37 123q-16 16 -39.5 27.5t-58.5 11.5h-76z" />
<glyph unicode="|" horiz-adv-x="692" d="M242 -152v1762h209v-1762h-209z" />
<glyph unicode="}" horiz-adv-x="833" d="M92 35h80q49 0 75.5 6t43.5 22q16 16 23.5 47t7.5 85v329q0 49 12 84t31.5 57.5t44 38t49.5 25.5q-25 10 -49.5 25.5t-44 38t-31.5 57.5t-12 84v330q0 53 -7.5 83.5t-23.5 47.5q-16 16 -43 22t-76 6h-80v187h146q78 0 131 -17.5t88 -52.5q41 -41 57 -91t16 -124v-342 q0 -86 37 -123q16 -16 41 -27.5t60 -11.5h73v-184h-73q-35 0 -59.5 -11.5t-41.5 -27.5q-37 -37 -37 -123v-342q0 -74 -16 -124t-57 -91q-35 -35 -88.5 -52.5t-130.5 -17.5h-146v187z" />
<glyph unicode="~" horiz-adv-x="1175" d="M88 571q45 45 83 76t73 49.5t69.5 26.5t75.5 8q59 0 111.5 -18.5t115.5 -48.5q43 -23 82 -36.5t82 -13.5q20 0 40 3.5t39.5 12.5t43 27.5t51.5 47.5l133 -132q-45 -45 -82.5 -75.5t-73.5 -49t-71 -26.5t-76 -8q-59 0 -112.5 18.5t-116.5 48.5q-43 23 -81 36t-81 13 t-80 -16t-94 -74z" />
<glyph unicode="&#xa4;" horiz-adv-x="1361" d="M139 166l150 151q-37 53 -57.5 118t-20.5 136q0 72 20.5 136.5t57.5 117.5l-150 150l137 137l150 -149q111 76 254 75q143 0 254 -75l151 149l138 -137l-152 -150q37 -53 57.5 -117.5t20.5 -136.5t-20.5 -136t-57.5 -118l152 -151l-138 -137l-151 151 q-53 -37 -117.5 -57.5t-136.5 -20.5t-136.5 20.5t-117.5 57.5l-150 -151zM401 571q0 -57 21.5 -108t59.5 -89t89.5 -59.5t108.5 -21.5t108.5 21.5t89 59.5t59 89t21.5 108t-21.5 107.5t-59 88.5t-89 59.5t-108.5 21.5t-108.5 -21.5t-89.5 -59.5t-59.5 -88t-21.5 -108z" />
<glyph unicode="&#xa6;" horiz-adv-x="704" d="M242 -152v717h209v-717h-209zM242 893v717h209v-717h-209z" />
<glyph unicode="&#xa7;" horiz-adv-x="1112" d="M152 530q0 59 17 110.5t46 91.5t64.5 69.5t70.5 48.5q-76 37 -124 99.5t-48 174.5q0 72 25.5 134.5t75 109.5t120 74.5t160.5 27.5t161 -25.5t120 -69.5t75.5 -106.5t28.5 -135.5h-201q-6 84 -56 119.5t-128 35.5q-86 0 -133 -41t-47 -117q0 -63 41 -103t112 -62l144 -43 q141 -43 216 -136t75 -245q0 -59 -18.5 -110.5t-47.5 -91.5t-63.5 -69.5t-69.5 -48.5q78 -35 129 -103.5t51 -185.5q0 -88 -31.5 -155.5t-86 -113.5t-125 -70.5t-148.5 -24.5q-76 0 -145.5 20.5t-125 63.5t-90 108.5t-36.5 155.5h205q6 -76 56 -119t136 -43q88 0 137 46 t49 126q0 55 -36.5 104.5t-122.5 75.5l-144 44q-141 43 -214.5 135t-73.5 245zM356 535q0 -59 16.5 -97.5t41.5 -64.5q53 -57 145 -58q90 0 143 58q25 27 42.5 64t17.5 98q0 106 -60 163q-29 27 -62.5 42.5t-80.5 15.5q-92 0 -145 -58q-29 -29 -43.5 -66.5t-14.5 -96.5z" />
<glyph unicode="&#xa8;" horiz-adv-x="1024" d="M197 1237v221h188v-221h-188zM639 1237v221h188v-221h-188z" />
<glyph unicode="&#xa9;" horiz-adv-x="1765" d="M141 729q0 154 58.5 289t159 235.5t235.5 158.5t289 58t289 -58t235 -158.5t158.5 -235.5t58.5 -289t-58.5 -289t-158.5 -235.5t-235.5 -158.5t-288.5 -58q-154 0 -289 58t-235.5 158.5t-159 235.5t-58.5 289zM291 729q0 -127 46 -236.5t126 -191.5t188.5 -128t231.5 -46 t231.5 46t188 128t126 191.5t46.5 236.5t-46.5 236.5t-126 191.5t-188 128t-231.5 46t-231.5 -46t-188.5 -128t-126 -191.5t-46 -236.5zM528 729q0 94 27 170t74 129t114.5 82t151.5 29q86 0 147.5 -27t120.5 -80l-94 -96q-47 41 -84 56.5t-90 15.5q-117 0 -169 -79 t-52 -200t52 -199.5t169 -78.5q53 0 90 15t84 56l94 -96q-59 -53 -120.5 -80t-147.5 -27q-84 0 -151.5 29t-114.5 82t-74 129t-27 170z" />
<glyph unicode="&#xab;" horiz-adv-x="1212" d="M76 557l471 469v-252l-219 -217l219 -219v-252zM594 557l471 469v-252l-221 -217l221 -219v-252z" />
<glyph unicode="&#xac;" d="M98 489v195h893v-483h-194v288h-699z" />
<glyph unicode="&#xad;" horiz-adv-x="872" d="M137 471v195h598v-195h-598z" />
<glyph unicode="&#xae;" horiz-adv-x="1765" d="M141 729q0 154 58.5 289t159 235.5t235.5 158.5t289 58t289 -58t235 -158.5t158.5 -235.5t58.5 -289t-58.5 -289t-158.5 -235.5t-235.5 -158.5t-288.5 -58q-154 0 -289 58t-235.5 158.5t-159 235.5t-58.5 289zM289 729q0 -127 46 -237.5t126 -191.5t188.5 -128t233.5 -47 t232.5 47t187 128t126 191.5t46.5 237.5t-46.5 237.5t-126 191.5t-187 128t-232.5 47t-233.5 -47t-188.5 -128t-126 -191.5t-46 -237.5zM625 330v800h301q57 0 104 -19t81 -53t53.5 -79t19.5 -94q0 -86 -46 -140.5t-112 -76.5l178 -338h-166l-164 317h-102v-317h-147z M772 764h135q59 0 95 35t36 86t-35.5 86t-95.5 35h-135v-242z" />
<glyph unicode="&#xaf;" horiz-adv-x="1024" d="M195 1274v149h634v-149h-634z" />
<glyph unicode="&#xb0;" horiz-adv-x="964" d="M125 1124q0 74 27.5 139.5t77 113.5t114 77t137.5 29q74 0 139.5 -29t113.5 -77t77 -113.5t29 -139.5t-29 -138t-77 -113.5t-113.5 -77t-139.5 -27.5t-138 27.5t-113.5 77t-77 114t-27.5 137.5zM297 1124q0 -80 53 -134t131 -54t132.5 54t54.5 134q0 39 -14.5 74 t-40 61.5t-59.5 41t-73 14.5q-78 0 -131 -55.5t-53 -135.5z" />
<glyph unicode="&#xb1;" d="M104 0v195h883v-195h-883zM104 647v195h345v344h194v-344h344v-195h-344v-346h-194v346h-345z" />
<glyph unicode="&#xb4;" horiz-adv-x="1024" d="M406 1227l153 332h232l-228 -332h-157z" />
<glyph unicode="&#xb5;" horiz-adv-x="1165" d="M156 -420v1458h209v-632q0 -121 61 -176.5t149 -55.5t150.5 55.5t62.5 176.5v632h209v-1038h-204v104q-53 -59 -125 -87.5t-150 -28.5q-92 0 -153 51v-459h-209z" />
<glyph unicode="&#xb6;" horiz-adv-x="1304" d="M78 1051q0 92 32.5 166.5t92 128t145.5 83t191 29.5h575v-1878h-209v1680h-221v-1680h-209v1069q-84 0 -156.5 33t-126 88t-84 128t-30.5 153z" />
<glyph unicode="&#xb7;" horiz-adv-x="569" d="M160 444v250h250v-250h-250z" />
<glyph unicode="&#xb8;" horiz-adv-x="1024" d="M342 -432l143 301h168l-104 -301h-207z" />
<glyph unicode="&#xbb;" horiz-adv-x="1212" d="M147 86v252l222 219l-222 217v252l474 -469zM666 86v252l219 219l-219 217v252l473 -469z" />
<glyph unicode="&#xc1;" horiz-adv-x="1280" d="M16 0l535 1458h178l535 -1458h-236l-100 293h-576l-100 -293h-236zM418 481h448l-221 647zM528 1599l154 332h231l-227 -332h-158z" />
<glyph unicode="&#xc2;" horiz-adv-x="1280" d="M16 0l535 1458h178l535 -1458h-236l-100 293h-576l-100 -293h-236zM283 1599l264 330h176l264 -330h-174l-178 199l-178 -199h-174zM418 481h448l-221 647z" />
<glyph unicode="&#xc4;" horiz-adv-x="1280" d="M16 0l535 1458h178l535 -1458h-236l-100 293h-576l-100 -293h-236zM319 1610v221h189v-221h-189zM418 481h448l-221 647zM762 1610v221h188v-221h-188z" />
<glyph unicode="&#xc7;" horiz-adv-x="1286" d="M137 729q0 104 2 189.5t15.5 155t42 129t82.5 112.5q76 76 172 115.5t211 39.5q203 0 342 -114.5t178 -333.5h-226q-27 111 -99.5 180.5t-194.5 69.5q-66 0 -121.5 -23.5t-94.5 -64.5q-27 -29 -44 -63t-26 -84t-13.5 -123.5t-4.5 -184.5t4.5 -184.5t13.5 -123.5t26.5 -84 t43.5 -63q39 -41 94.5 -64.5t121.5 -23.5q123 0 196.5 70t99.5 180h224q-18 -109 -64.5 -192.5t-115 -141t-155.5 -86t-185 -28.5q-115 0 -211.5 40t-171.5 115q-53 53 -82 112.5t-42.5 129.5t-15.5 155t-2 189zM455 -432l143 301h168l-104 -301h-207z" />
<glyph unicode="&#xc9;" horiz-adv-x="1234" d="M190 0v1458h932v-198h-710v-426h606v-197h-606v-438h710v-199h-932zM530 1599l154 332h231l-227 -332h-158z" />
<glyph unicode="&#xcb;" horiz-adv-x="1234" d="M190 0v1458h932v-198h-710v-426h606v-197h-606v-438h710v-199h-932zM322 1610v221h188v-221h-188zM764 1610v221h188v-221h-188z" />
<glyph unicode="&#xcd;" horiz-adv-x="602" d="M190 0v1458h222v-1458h-222zM190 1599l154 332h231l-227 -332h-158z" />
<glyph unicode="&#xce;" horiz-adv-x="602" d="M-49 1599l264 330h176l264 -330h-174l-178 199l-178 -199h-174zM190 0v1458h222v-1458h-222z" />
<glyph unicode="&#xd3;" horiz-adv-x="1323" d="M137 729q0 104 2 189.5t15.5 155t42 129t82.5 112.5q76 76 171 115.5t212 39.5t213 -39.5t172 -115.5q53 -53 81.5 -112.5t41 -129t14.5 -155t2 -189.5t-2 -189t-14.5 -155t-41 -129t-81.5 -113q-76 -76 -172.5 -115.5t-212.5 -39.5q-117 0 -212.5 40t-170.5 115 q-53 53 -82 112.5t-42.5 129.5t-15.5 155t-2 189zM358 729q0 -111 3.5 -183.5t12.5 -122.5t26.5 -84t43.5 -63q39 -41 95.5 -65.5t122.5 -24.5t122 25t95 65q27 29 44 63t26 84t12.5 122.5t3.5 183.5t-3.5 183.5t-12.5 122.5t-26.5 84t-43.5 63q-39 41 -95.5 65.5 t-121.5 24.5q-66 0 -122.5 -24.5t-95.5 -65.5q-27 -29 -44 -63t-26 -84t-12.5 -122.5t-3.5 -183.5zM555 1599l154 332h231l-227 -332h-158z" />
<glyph unicode="&#xd4;" horiz-adv-x="1323" d="M137 729q0 104 2 189.5t15.5 155t42 129t82.5 112.5q76 76 171 115.5t212 39.5t213 -39.5t172 -115.5q53 -53 81.5 -112.5t41 -129t14.5 -155t2 -189.5t-2 -189t-14.5 -155t-41 -129t-81.5 -113q-76 -76 -172.5 -115.5t-212.5 -39.5q-117 0 -212.5 40t-170.5 115 q-53 53 -82 112.5t-42.5 129.5t-15.5 155t-2 189zM309 1599l264 330h177l264 -330h-174l-178 199l-179 -199h-174zM358 729q0 -111 3.5 -183.5t12.5 -122.5t26.5 -84t43.5 -63q39 -41 95.5 -65.5t122.5 -24.5t122 25t95 65q27 29 44 63t26 84t12.5 122.5t3.5 183.5 t-3.5 183.5t-12.5 122.5t-26.5 84t-43.5 63q-39 41 -95.5 65.5t-121.5 24.5q-66 0 -122.5 -24.5t-95.5 -65.5q-27 -29 -44 -63t-26 -84t-12.5 -122.5t-3.5 -183.5z" />
<glyph unicode="&#xd6;" horiz-adv-x="1323" d="M137 729q0 104 2 189.5t15.5 155t42 129t82.5 112.5q76 76 171 115.5t212 39.5t213 -39.5t172 -115.5q53 -53 81.5 -112.5t41 -129t14.5 -155t2 -189.5t-2 -189t-14.5 -155t-41 -129t-81.5 -113q-76 -76 -172.5 -115.5t-212.5 -39.5q-117 0 -212.5 40t-170.5 115 q-53 53 -82 112.5t-42.5 129.5t-15.5 155t-2 189zM346 1610v221h189v-221h-189zM358 729q0 -111 3.5 -183.5t12.5 -122.5t26.5 -84t43.5 -63q39 -41 95.5 -65.5t122.5 -24.5t122 25t95 65q27 29 44 63t26 84t12.5 122.5t3.5 183.5t-3.5 183.5t-12.5 122.5t-26.5 84t-43.5 63 q-39 41 -95.5 65.5t-121.5 24.5q-66 0 -122.5 -24.5t-95.5 -65.5q-27 -29 -44 -63t-26 -84t-12.5 -122.5t-3.5 -183.5zM788 1610v221h189v-221h-189z" />
<glyph unicode="&#xd7;" d="M117 270l299 299l-299 299l131 131l297 -299l299 299l131 -131l-299 -299l299 -299l-131 -129l-299 297l-297 -297z" />
<glyph unicode="&#xda;" horiz-adv-x="1382" d="M168 492v966h221v-956q0 -147 82 -231.5t219 -84.5t220 84t83 232v956h221v-966q0 -113 -39.5 -206t-110.5 -159t-167 -102.5t-207 -36.5t-207 36.5t-165.5 102.5t-109.5 159t-40 206zM586 1599l153 332h232l-228 -332h-157z" />
<glyph unicode="&#xdc;" horiz-adv-x="1382" d="M168 492v966h221v-956q0 -147 82 -231.5t219 -84.5t220 84t83 232v956h221v-966q0 -113 -39.5 -206t-110.5 -159t-167 -102.5t-207 -36.5t-207 36.5t-165.5 102.5t-109.5 159t-40 206zM377 1610v221h188v-221h-188zM819 1610v221h189v-221h-189z" />
<glyph unicode="&#xdd;" horiz-adv-x="1114" d="M10 1458h242l305 -641l305 641h242l-436 -858v-600h-222v600zM451 1599l153 332h232l-228 -332h-157z" />
<glyph unicode="&#xdf;" horiz-adv-x="1157" d="M166 0v1069q0 100 31.5 176t90 127t139.5 76t177 25q88 0 165 -20.5t134.5 -63.5t89 -110t31.5 -157q0 -92 -36 -147t-91 -90q66 -35 97.5 -86t31.5 -150v-338q0 -74 -21.5 -133t-62.5 -98q-43 -41 -98.5 -60.5t-134.5 -19.5h-109v178h66q39 0 61.5 8.5t44.5 26.5 q43 33 43 117v319q0 74 -37 109q-39 39 -106 39h-72v166h64q66 0 108.5 38.5t42.5 114.5q0 37 -14.5 69t-36.5 54q-51 49 -166 49q-123 0 -172 -62.5t-49 -168.5v-1057h-211z" />
<glyph unicode="&#xe1;" horiz-adv-x="1085" d="M88 305q0 131 89 215t269 84h275v74q0 98 -52.5 146t-174.5 48q-86 0 -135.5 -22.5t-92.5 -77.5l-137 129q74 86 159 118t214 32q428 0 428 -357v-694h-205v94q-57 -57 -118.5 -81.5t-157.5 -24.5q-98 0 -165 23.5t-114 70.5q-82 86 -82 223zM291 309q0 -72 46 -109.5 t144 -37.5q59 0 106.5 9t88.5 50q45 45 45 154v84h-244q-92 0 -139 -39t-47 -111zM420 1227l153 332h232l-227 -332h-158z" />
<glyph unicode="&#xe2;" horiz-adv-x="1085" d="M88 305q0 131 89 215t269 84h275v74q0 98 -52.5 146t-174.5 48q-86 0 -135.5 -22.5t-92.5 -77.5l-137 129q74 86 159 118t214 32q428 0 428 -357v-694h-205v94q-57 -57 -118.5 -81.5t-157.5 -24.5q-98 0 -165 23.5t-114 70.5q-82 86 -82 223zM174 1227l264 329h176 l265 -329h-174l-179 198l-178 -198h-174zM291 309q0 -72 46 -109.5t144 -37.5q59 0 106.5 9t88.5 50q45 45 45 154v84h-244q-92 0 -139 -39t-47 -111z" />
<glyph unicode="&#xe4;" horiz-adv-x="1085" d="M88 305q0 131 89 215t269 84h275v74q0 98 -52.5 146t-174.5 48q-86 0 -135.5 -22.5t-92.5 -77.5l-137 129q74 86 159 118t214 32q428 0 428 -357v-694h-205v94q-57 -57 -118.5 -81.5t-157.5 -24.5q-98 0 -165 23.5t-114 70.5q-82 86 -82 223zM211 1237v221h188v-221h-188 zM291 309q0 -72 46 -109.5t144 -37.5q59 0 106.5 9t88.5 50q45 45 45 154v84h-244q-92 0 -139 -39t-47 -111zM653 1237v221h189v-221h-189z" />
<glyph unicode="&#xe7;" horiz-adv-x="993" d="M113 520q0 145 40 246.5t104.5 164t147 91.5t170.5 29q109 0 189 -34t154 -112l-144 -139q-49 53 -93 75.5t-106 22.5q-123 0 -192 -92q-35 -43 -48 -101.5t-13 -150.5t13 -151.5t48 -102.5q70 -92 192 -92q61 0 105.5 22.5t93.5 75.5l144 -137q-74 -78 -154 -112.5 t-189 -34.5q-88 0 -170.5 28.5t-147 92t-104.5 165t-40 246.5zM342 -432l143 301h168l-104 -301h-207z" />
<glyph unicode="&#xe9;" horiz-adv-x="1103" d="M113 520q0 254 119.5 392.5t320.5 138.5q104 0 186 -37t138.5 -102.5t86 -157.5t29.5 -203v-92h-674q0 -135 68 -213t197 -78q88 0 142 25.5t110 80.5l133 -124q-41 -41 -81 -71t-86 -50.5t-100.5 -30.5t-121.5 -10q-98 0 -183.5 27.5t-148 90t-99 165t-36.5 249.5z M319 604h467q-2 47 -7 77t-21 64q-25 59 -78 95.5t-127 36.5t-128 -36t-79 -96q-16 -35 -20 -64.5t-7 -76.5zM453 1227l153 332h232l-228 -332h-157z" />
<glyph unicode="&#xeb;" horiz-adv-x="1103" d="M113 520q0 254 119.5 392.5t320.5 138.5q104 0 186 -37t138.5 -102.5t86 -157.5t29.5 -203v-92h-674q0 -135 68 -213t197 -78q88 0 142 25.5t110 80.5l133 -124q-41 -41 -81 -71t-86 -50.5t-100.5 -30.5t-121.5 -10q-98 0 -183.5 27.5t-148 90t-99 165t-36.5 249.5z M244 1237v221h188v-221h-188zM319 604h467q-2 47 -7 77t-21 64q-25 59 -78 95.5t-127 36.5t-128 -36t-79 -96q-16 -35 -20 -64.5t-7 -76.5zM686 1237v221h188v-221h-188z" />
<glyph unicode="&#xed;" horiz-adv-x="540" d="M166 0v1038h209v-1038h-209zM166 1227l153 332h232l-227 -332h-158z" />
<glyph unicode="&#xee;" horiz-adv-x="540" d="M-76 1227l264 329h177l264 -329h-174l-179 198l-178 -198h-174zM166 0v1038h209v-1038h-209z" />
<glyph unicode="&#xf3;" horiz-adv-x="1099" d="M117 520q0 131 24.5 230.5t98.5 177.5q51 53 126.5 88t182.5 35q106 0 183 -35t128 -88q74 -78 98.5 -177.5t24.5 -230.5q0 -133 -24.5 -232.5t-98.5 -176.5q-51 -53 -128 -88t-183 -35t-182 34.5t-127 88.5q-74 78 -98.5 177t-24.5 232zM326 520q0 -86 12 -161.5 t59 -122.5q61 -61 152 -62q92 0 153 62q47 47 59.5 122.5t12.5 161.5t-12 162t-60 123q-59 59 -153 59q-92 0 -152 -59q-47 -47 -59 -123t-12 -162zM442 1227l154 332h231l-227 -332h-158z" />
<glyph unicode="&#xf4;" horiz-adv-x="1099" d="M117 520q0 131 24.5 230.5t98.5 177.5q51 53 126.5 88t182.5 35q106 0 183 -35t128 -88q74 -78 98.5 -177.5t24.5 -230.5q0 -133 -24.5 -232.5t-98.5 -176.5q-51 -53 -128 -88t-183 -35t-182 34.5t-127 88.5q-74 78 -98.5 177t-24.5 232zM197 1227l264 329h176l264 -329 h-174l-178 198l-178 -198h-174zM326 520q0 -86 12 -161.5t59 -122.5q61 -61 152 -62q92 0 153 62q47 47 59.5 122.5t12.5 161.5t-12 162t-60 123q-59 59 -153 59q-92 0 -152 -59q-47 -47 -59 -123t-12 -162z" />
<glyph unicode="&#xf6;" horiz-adv-x="1099" d="M117 520q0 131 24.5 230.5t98.5 177.5q51 53 126.5 88t182.5 35q106 0 183 -35t128 -88q74 -78 98.5 -177.5t24.5 -230.5q0 -133 -24.5 -232.5t-98.5 -176.5q-51 -53 -128 -88t-183 -35t-182 34.5t-127 88.5q-74 78 -98.5 177t-24.5 232zM233 1237v221h189v-221h-189z M326 520q0 -86 12 -161.5t59 -122.5q61 -61 152 -62q92 0 153 62q47 47 59.5 122.5t12.5 161.5t-12 162t-60 123q-59 59 -153 59q-92 0 -152 -59q-47 -47 -59 -123t-12 -162zM676 1237v221h188v-221h-188z" />
<glyph unicode="&#xf7;" d="M98 471v195h893v-195h-893zM434 68v223h223v-223h-223zM434 848v223h223v-223h-223z" />
<glyph unicode="&#xfa;" horiz-adv-x="1163" d="M156 375v663h209v-632q0 -121 60 -176.5t148 -55.5q43 0 83 13.5t69 42t46 72.5t17 104v632h209v-1038h-204v104q-53 -59 -126 -87.5t-151 -28.5q-80 0 -144.5 24.5t-111.5 69.5q-59 59 -81.5 132t-22.5 161zM469 1227l154 332h231l-227 -332h-158z" />
<glyph unicode="&#xfc;" horiz-adv-x="1163" d="M156 375v663h209v-632q0 -121 60 -176.5t148 -55.5q43 0 83 13.5t69 42t46 72.5t17 104v632h209v-1038h-204v104q-53 -59 -126 -87.5t-151 -28.5q-80 0 -144.5 24.5t-111.5 69.5q-59 59 -81.5 132t-22.5 161zM260 1237v221h189v-221h-189zM702 1237v221h189v-221h-189z " />
<glyph unicode="&#xfd;" horiz-adv-x="958" d="M16 1038h222l247 -731l242 731h223l-458 -1245q-29 -82 -76 -129q-43 -43 -98.5 -59.5t-114.5 -16.5h-84v189h53q66 0 96.5 23.5t53.5 86.5l57 162zM373 1227l153 332h232l-228 -332h-157z" />
<glyph unicode="&#x102;" horiz-adv-x="1280" d="M16 0l535 1458h178l535 -1458h-236l-100 293h-576l-100 -293h-236zM301 1878h152q10 -72 61 -108.5t127 -36.5t127 36.5t61 108.5h148q-10 -154 -100.5 -225.5t-235.5 -71.5t-237.5 71.5t-102.5 225.5zM418 481h448l-221 647z" />
<glyph unicode="&#x103;" horiz-adv-x="1085" d="M88 305q0 131 89 215t269 84h275v74q0 98 -52.5 146t-174.5 48q-86 0 -135.5 -22.5t-92.5 -77.5l-137 129q74 86 159 118t214 32q428 0 428 -357v-694h-205v94q-57 -57 -118.5 -81.5t-157.5 -24.5q-98 0 -165 23.5t-114 70.5q-82 86 -82 223zM199 1505h151 q10 -72 61.5 -108.5t127.5 -36.5t127 37t61 108h147q-10 -154 -100 -225.5t-235 -71.5t-237.5 72t-102.5 225zM291 309q0 -72 46 -109.5t144 -37.5q59 0 106.5 9t88.5 50q45 45 45 154v84h-244q-92 0 -139 -39t-47 -111z" />
<glyph unicode="&#x104;" horiz-adv-x="1280" d="M16 0l535 1458h178l535 -1458h-236l-100 293h-576l-100 -293h-236zM418 481h448l-221 647zM1059 -131h168l143 -301h-207z" />
<glyph unicode="&#x105;" horiz-adv-x="1085" d="M88 305q0 131 89 215t269 84h275v74q0 98 -52.5 146t-174.5 48q-86 0 -135.5 -22.5t-92.5 -77.5l-137 129q74 86 159 118t214 32q428 0 428 -357v-694h-205v94q-57 -57 -118.5 -81.5t-157.5 -24.5q-98 0 -165 23.5t-114 70.5q-82 86 -82 223zM291 309q0 -72 46 -109.5 t144 -37.5q59 0 106.5 9t88.5 50q45 45 45 154v84h-244q-92 0 -139 -39t-47 -111zM752 -131h168l143 -301h-207z" />
<glyph unicode="&#x106;" horiz-adv-x="1286" d="M137 729q0 104 2 189.5t15.5 155t42 129t82.5 112.5q76 76 172 115.5t211 39.5q203 0 342 -114.5t178 -333.5h-226q-27 111 -99.5 180.5t-194.5 69.5q-66 0 -121.5 -23.5t-94.5 -64.5q-27 -29 -44 -63t-26 -84t-13.5 -123.5t-4.5 -184.5t4.5 -184.5t13.5 -123.5t26.5 -84 t43.5 -63q39 -41 94.5 -64.5t121.5 -23.5q123 0 196.5 70t99.5 180h224q-18 -109 -64.5 -192.5t-115 -141t-155.5 -86t-185 -28.5q-115 0 -211.5 40t-171.5 115q-53 53 -82 112.5t-42.5 129.5t-15.5 155t-2 189zM537 1599l153 332h232l-228 -332h-157z" />
<glyph unicode="&#x107;" horiz-adv-x="993" d="M113 520q0 145 40 246.5t104.5 164t147 91.5t170.5 29q109 0 189 -34t154 -112l-144 -139q-49 53 -93 75.5t-106 22.5q-123 0 -192 -92q-35 -43 -48 -101.5t-13 -150.5t13 -151.5t48 -102.5q70 -92 192 -92q61 0 105.5 22.5t93.5 75.5l144 -137q-74 -78 -154 -112.5 t-189 -34.5q-88 0 -170.5 28.5t-147 92t-104.5 165t-40 246.5zM393 1227l154 332h231l-227 -332h-158z" />
<glyph unicode="&#x10c;" horiz-adv-x="1286" d="M137 729q0 104 2 189.5t15.5 155t42 129t82.5 112.5q76 76 172 115.5t211 39.5q203 0 342 -114.5t178 -333.5h-226q-27 111 -99.5 180.5t-194.5 69.5q-66 0 -121.5 -23.5t-94.5 -64.5q-27 -29 -44 -63t-26 -84t-13.5 -123.5t-4.5 -184.5t4.5 -184.5t13.5 -123.5t26.5 -84 t43.5 -63q39 -41 94.5 -64.5t121.5 -23.5q123 0 196.5 70t99.5 180h224q-18 -109 -64.5 -192.5t-115 -141t-155.5 -86t-185 -28.5q-115 0 -211.5 40t-171.5 115q-53 53 -82 112.5t-42.5 129.5t-15.5 155t-2 189zM291 1929h174l178 -198l178 198h174l-264 -330h-176z" />
<glyph unicode="&#x10d;" horiz-adv-x="993" d="M113 520q0 145 40 246.5t104.5 164t147 91.5t170.5 29q109 0 189 -34t154 -112l-144 -139q-49 53 -93 75.5t-106 22.5q-123 0 -192 -92q-35 -43 -48 -101.5t-13 -150.5t13 -151.5t48 -102.5q70 -92 192 -92q61 0 105.5 22.5t93.5 75.5l144 -137q-74 -78 -154 -112.5 t-189 -34.5q-88 0 -170.5 28.5t-147 92t-104.5 165t-40 246.5zM166 1556h174l178 -198l178 198h174l-264 -329h-176z" />
<glyph unicode="&#x10e;" horiz-adv-x="1363" d="M190 0v1458h512q115 0 211.5 -33.5t165.5 -103.5q59 -59 90 -128t43.5 -143.5t13.5 -152.5t1 -158t-1 -161.5t-13.5 -159.5t-43 -149.5t-90.5 -131.5q-70 -70 -166 -103.5t-211 -33.5h-512zM330 1929h174l178 -198l178 198h174l-264 -330h-176zM412 199h268q158 0 248 98 q57 63 67.5 176.5t10.5 265.5t-10.5 255.5t-67.5 166.5q-90 98 -248 99h-268v-1061z" />
<glyph unicode="&#x10f;" horiz-adv-x="1132" d="M117 520q0 59 3 120.5t15 119t36 109t62 89.5q43 43 109 68t143 25q84 0 149.5 -25t123.5 -92v524h209v-1458h-205v111q-59 -72 -124 -97.5t-151 -25.5q-78 0 -144.5 24.5t-109.5 67.5q-39 39 -62.5 90t-35.5 109.5t-15 120t-3 120.5zM326 520q0 -70 7 -132t30.5 -110.5 t65.5 -76t114 -27.5q70 0 112.5 27.5t65 76t30 110.5t7.5 132t-7.5 132.5t-30 109.5t-65.5 74.5t-112 27.5q-72 0 -114 -27.5t-65.5 -74.5t-30.5 -109.5t-7 -132.5zM1151 1198v379h197v-217z" />
<glyph unicode="&#x110;" horiz-adv-x="1400" d="M78 651v170h151v637h512q260 0 412 -194q41 -53 63.5 -103.5t33 -111t12.5 -137.5t2 -183q0 -113 -2 -191.5t-13.5 -139t-34 -108.5t-61.5 -97q-70 -86 -174.5 -139.5t-243.5 -53.5h-506v651h-151zM451 197h264q184 0 272 129q18 27 29.5 54.5t16.5 69.5t7 106.5t2 166.5 q0 98 -2 164.5t-8 111.5t-19.5 76t-33.5 60q-47 66 -109.5 96.5t-154.5 30.5h-264v-441h282v-170h-282v-454z" />
<glyph unicode="&#x111;" horiz-adv-x="1132" d="M117 520q0 59 3 120.5t15 119t36 109t62 89.5q43 43 109 68t143 25q84 0 149.5 -25t123.5 -92v225h-142v150h142v149h209v-149h120v-150h-120v-1159h-205v111q-59 -72 -124 -97.5t-151 -25.5q-78 0 -144.5 24.5t-109.5 67.5q-39 39 -62.5 90t-35.5 109.5t-15 120 t-3 120.5zM326 520q0 -70 7 -132t30.5 -110.5t65.5 -76t114 -27.5q70 0 112.5 27.5t65 76t30 110.5t7.5 132t-7.5 132.5t-30 109.5t-65.5 74.5t-112 27.5q-72 0 -114 -27.5t-65.5 -74.5t-30.5 -109.5t-7 -132.5z" />
<glyph unicode="&#x118;" horiz-adv-x="1234" d="M190 0v1458h932v-198h-710v-426h606v-197h-606v-438h710v-199h-932zM874 -131h168l144 -301h-207z" />
<glyph unicode="&#x119;" horiz-adv-x="1103" d="M113 520q0 254 119.5 392.5t320.5 138.5q104 0 186 -37t138.5 -102.5t86 -157.5t29.5 -203v-92h-674q0 -135 68 -213t197 -78q88 0 142 25.5t110 80.5l133 -124q-41 -41 -81 -71t-86 -50.5t-100.5 -30.5t-121.5 -10q-98 0 -183.5 27.5t-148 90t-99 165t-36.5 249.5z M319 604h467q-2 47 -7 77t-21 64q-25 59 -78 95.5t-127 36.5t-128 -36t-79 -96q-16 -35 -20 -64.5t-7 -76.5zM504 -131h168l143 -301h-207z" />
<glyph unicode="&#x11a;" horiz-adv-x="1234" d="M190 0v1458h932v-198h-710v-426h606v-197h-606v-438h710v-199h-932zM264 1929h174l178 -198l179 198h174l-264 -330h-177z" />
<glyph unicode="&#x11b;" horiz-adv-x="1103" d="M113 520q0 254 119.5 392.5t320.5 138.5q104 0 186 -37t138.5 -102.5t86 -157.5t29.5 -203v-92h-674q0 -135 68 -213t197 -78q88 0 142 25.5t110 80.5l133 -124q-41 -41 -81 -71t-86 -50.5t-100.5 -30.5t-121.5 -10q-98 0 -183.5 27.5t-148 90t-99 165t-36.5 249.5z M199 1556h174l178 -198l178 198h174l-264 -329h-176zM319 604h467q-2 47 -7 77t-21 64q-25 59 -78 95.5t-127 36.5t-128 -36t-79 -96q-16 -35 -20 -64.5t-7 -76.5z" />
<glyph unicode="&#x131;" horiz-adv-x="540" d="M166 0v1038h209v-1038h-209z" />
<glyph unicode="&#x139;" horiz-adv-x="1175" d="M190 0v1458h222v-1259h702v-199h-924zM481 1599l154 332h231l-227 -332h-158z" />
<glyph unicode="&#x13a;" horiz-adv-x="636" d="M160 287v1171h209v-1159q0 -59 24.5 -90t87.5 -31h92v-178h-129q-74 0 -128 23.5t-88.5 62.5t-51 91t-16.5 110zM213 1599l154 332h231l-227 -332h-158z" />
<glyph unicode="&#x13d;" horiz-adv-x="1175" d="M190 0v1458h222v-1259h702v-199h-924zM700 1057v401h197v-239z" />
<glyph unicode="&#x13e;" horiz-adv-x="636" d="M160 287v1171h209v-1159q0 -59 24.5 -90t87.5 -31h92v-178h-129q-74 0 -128 23.5t-88.5 62.5t-51 91t-16.5 110zM553 1198v379h197v-217z" />
<glyph unicode="&#x141;" horiz-adv-x="1202" d="M78 455v190l141 88v725h221v-586l289 183v-187l-289 -182v-487h701v-199h-922v545z" />
<glyph unicode="&#x142;" horiz-adv-x="667" d="M68 584v178l120 74v622h209v-495l144 88v-177l-144 -90v-485q0 -59 24.5 -90t88.5 -31h92v-178h-129q-74 0 -128 23.5t-89 62.5t-51.5 91t-16.5 110v370z" />
<glyph unicode="&#x143;" horiz-adv-x="1478" d="M190 0v1458h203l674 -1024v1024h221v-1458h-203l-673 1026v-1026h-222zM633 1599l153 332h232l-227 -332h-158z" />
<glyph unicode="&#x144;" horiz-adv-x="1163" d="M166 0v1038h205v-104q53 59 125.5 88t150.5 29q80 0 144.5 -25t111.5 -70q59 -59 82 -131.5t23 -160.5v-664h-209v633q0 121 -60.5 176t-148.5 55t-151.5 -56t-63.5 -175v-633h-209zM475 1227l154 332h231l-227 -332h-158z" />
<glyph unicode="&#x147;" horiz-adv-x="1478" d="M190 0v1458h203l674 -1024v1024h221v-1458h-203l-673 1026v-1026h-222zM387 1929h174l178 -198l179 198h174l-265 -330h-176z" />
<glyph unicode="&#x148;" horiz-adv-x="1163" d="M166 0v1038h205v-104q53 59 125.5 88t150.5 29q80 0 144.5 -25t111.5 -70q59 -59 82 -131.5t23 -160.5v-664h-209v633q0 121 -60.5 176t-148.5 55t-151.5 -56t-63.5 -175v-633h-209zM229 1556h174l179 -198l178 198h174l-264 -329h-176z" />
<glyph unicode="&#x150;" horiz-adv-x="1323" d="M137 729q0 104 2 189.5t15.5 155t42 129t82.5 112.5q76 76 171 115.5t212 39.5t213 -39.5t172 -115.5q53 -53 81.5 -112.5t41 -129t14.5 -155t2 -189.5t-2 -189t-14.5 -155t-41 -129t-81.5 -113q-76 -76 -172.5 -115.5t-212.5 -39.5q-117 0 -212.5 40t-170.5 115 q-53 53 -82 112.5t-42.5 129.5t-15.5 155t-2 189zM358 729q0 -111 3.5 -183.5t12.5 -122.5t26.5 -84t43.5 -63q39 -41 95.5 -65.5t122.5 -24.5t122 25t95 65q27 29 44 63t26 84t12.5 122.5t3.5 183.5t-3.5 183.5t-12.5 122.5t-26.5 84t-43.5 63q-39 41 -95.5 65.5 t-121.5 24.5q-66 0 -122.5 -24.5t-95.5 -65.5q-27 -29 -44 -63t-26 -84t-12.5 -122.5t-3.5 -183.5zM360 1599l154 332h231l-227 -332h-158zM739 1599l156 332h229l-229 -332h-156z" />
<glyph unicode="&#x151;" horiz-adv-x="1099" d="M117 520q0 131 24.5 230.5t98.5 177.5q51 53 126.5 88t182.5 35q106 0 183 -35t128 -88q74 -78 98.5 -177.5t24.5 -230.5q0 -133 -24.5 -232.5t-98.5 -176.5q-51 -53 -128 -88t-183 -35t-182 34.5t-127 88.5q-74 78 -98.5 177t-24.5 232zM248 1227l153 332h232l-227 -332 h-158zM326 520q0 -86 12 -161.5t59 -122.5q61 -61 152 -62q92 0 153 62q47 47 59.5 122.5t12.5 161.5t-12 162t-60 123q-59 59 -153 59q-92 0 -152 -59q-47 -47 -59 -123t-12 -162zM627 1227l155 332h230l-230 -332h-155z" />
<glyph unicode="&#x154;" horiz-adv-x="1341" d="M190 0v1458h566q104 0 187 -31.5t142.5 -88t91 -135.5t31.5 -171q0 -158 -84 -255t-206 -132l335 -645h-258l-307 614h-276v-614h-222zM412 803h327q111 0 179.5 59t68.5 168t-68.5 169.5t-179.5 60.5h-327v-457zM563 1599l154 332h231l-227 -332h-158z" />
<glyph unicode="&#x155;" horiz-adv-x="899" d="M166 0v1038h205v-112q41 55 114.5 90t161.5 35q76 0 135.5 -22.5t112.5 -76.5l-158 -157q-35 35 -68.5 52t-86.5 17q-86 0 -146.5 -62.5t-60.5 -170.5v-631h-209zM344 1227l154 332h231l-227 -332h-158z" />
<glyph unicode="&#x158;" horiz-adv-x="1341" d="M190 0v1458h566q104 0 187 -31.5t142.5 -88t91 -135.5t31.5 -171q0 -158 -84 -255t-206 -132l335 -645h-258l-307 614h-276v-614h-222zM317 1929h175l178 -198l178 198h174l-264 -330h-176zM412 803h327q111 0 179.5 59t68.5 168t-68.5 169.5t-179.5 60.5h-327v-457z" />
<glyph unicode="&#x159;" horiz-adv-x="899" d="M111 1556h174l178 -198l178 198h174l-264 -329h-176zM166 0v1038h205v-112q41 55 114.5 90t161.5 35q76 0 135.5 -22.5t112.5 -76.5l-158 -157q-35 35 -68.5 52t-86.5 17q-86 0 -146.5 -62.5t-60.5 -170.5v-631h-209z" />
<glyph unicode="&#x15a;" horiz-adv-x="1208" d="M61 180l148 146q80 -80 170 -110t203 -30q143 0 222 58.5t79 165.5q0 100 -58 151q-29 27 -61.5 39t-97.5 23l-172 24q-178 25 -277 117q-106 100 -106 278q0 94 33.5 173t96 136.5t152.5 88t205 30.5q145 0 251.5 -38.5t201.5 -126.5l-142 -140q-68 66 -146.5 89.5 t-170.5 23.5q-129 0 -197.5 -64.5t-68.5 -162.5q0 -41 13 -75t42 -61q57 -51 164 -67l166 -25q102 -16 163.5 -41.5t108.5 -66.5q59 -53 89 -129t30 -170q0 -100 -39 -180t-108.5 -135.5t-166 -84t-210.5 -28.5q-166 0 -289 43t-228 149zM498 1599l153 332h232l-228 -332 h-157z" />
<glyph unicode="&#x15b;" horiz-adv-x="1021" d="M66 137l137 137q63 -66 142 -87t157 -21q96 0 161.5 35t65.5 108q0 53 -31.5 85t-107.5 38l-166 14q-147 12 -227 81t-80 206q0 76 30.5 135.5t84 99.5t124 61.5t152.5 21.5q117 0 215 -27t170 -90l-131 -133q-49 41 -115.5 58.5t-140.5 17.5q-94 0 -141.5 -37t-47.5 -97 q0 -47 30 -78.5t114 -39.5l164 -15q147 -12 228 -83t81 -210q0 -82 -33 -143t-90 -103t-137 -62.5t-172 -20.5q-127 0 -235.5 29.5t-200.5 119.5zM406 1227l153 332h232l-228 -332h-157z" />
<glyph unicode="&#x15e;" horiz-adv-x="1208" d="M61 180l148 146q80 -80 170 -110t203 -30q143 0 222 58.5t79 165.5q0 100 -58 151q-29 27 -61.5 39t-97.5 23l-172 24q-178 25 -277 117q-106 100 -106 278q0 94 33.5 173t96 136.5t152.5 88t205 30.5q145 0 251.5 -38.5t201.5 -126.5l-142 -140q-68 66 -146.5 89.5 t-170.5 23.5q-129 0 -197.5 -64.5t-68.5 -162.5q0 -41 13 -75t42 -61q57 -51 164 -67l166 -25q102 -16 163.5 -41.5t108.5 -66.5q59 -53 89 -129t30 -170q0 -100 -39 -180t-108.5 -135.5t-166 -84t-210.5 -28.5q-166 0 -289 43t-228 149zM426 -432l143 301h168l-104 -301 h-207z" />
<glyph unicode="&#x15f;" horiz-adv-x="1021" d="M66 137l137 137q63 -66 142 -87t157 -21q96 0 161.5 35t65.5 108q0 53 -31.5 85t-107.5 38l-166 14q-147 12 -227 81t-80 206q0 76 30.5 135.5t84 99.5t124 61.5t152.5 21.5q117 0 215 -27t170 -90l-131 -133q-49 41 -115.5 58.5t-140.5 17.5q-94 0 -141.5 -37t-47.5 -97 q0 -47 30 -78.5t114 -39.5l164 -15q147 -12 228 -83t81 -210q0 -82 -33 -143t-90 -103t-137 -62.5t-172 -20.5q-127 0 -235.5 29.5t-200.5 119.5zM334 -432l143 301h168l-104 -301h-207z" />
<glyph unicode="&#x160;" horiz-adv-x="1208" d="M61 180l148 146q80 -80 170 -110t203 -30q143 0 222 58.5t79 165.5q0 100 -58 151q-29 27 -61.5 39t-97.5 23l-172 24q-178 25 -277 117q-106 100 -106 278q0 94 33.5 173t96 136.5t152.5 88t205 30.5q145 0 251.5 -38.5t201.5 -126.5l-142 -140q-68 66 -146.5 89.5 t-170.5 23.5q-129 0 -197.5 -64.5t-68.5 -162.5q0 -41 13 -75t42 -61q57 -51 164 -67l166 -25q102 -16 163.5 -41.5t108.5 -66.5q59 -53 89 -129t30 -170q0 -100 -39 -180t-108.5 -135.5t-166 -84t-210.5 -28.5q-166 0 -289 43t-228 149zM246 1929h174l178 -198l178 198h174 l-264 -330h-176z" />
<glyph unicode="&#x161;" horiz-adv-x="1021" d="M66 137l137 137q63 -66 142 -87t157 -21q96 0 161.5 35t65.5 108q0 53 -31.5 85t-107.5 38l-166 14q-147 12 -227 81t-80 206q0 76 30.5 135.5t84 99.5t124 61.5t152.5 21.5q117 0 215 -27t170 -90l-131 -133q-49 41 -115.5 58.5t-140.5 17.5q-94 0 -141.5 -37t-47.5 -97 q0 -47 30 -78.5t114 -39.5l164 -15q147 -12 228 -83t81 -210q0 -82 -33 -143t-90 -103t-137 -62.5t-172 -20.5q-127 0 -235.5 29.5t-200.5 119.5zM156 1556h174l178 -198l178 198h174l-264 -329h-176z" />
<glyph unicode="&#x162;" horiz-adv-x="1146" d="M61 1260v198h1024v-198h-401v-1260h-221v1260h-402zM395 -432l144 301h168l-105 -301h-207z" />
<glyph unicode="&#x163;" horiz-adv-x="700" d="M72 860v160h118v315h209v-315h201v-160h-201v-561q0 -57 28 -89t87 -32h86v-178h-125q-74 0 -127 24.5t-88 64.5t-52.5 92t-17.5 108v571h-118zM176 -432l143 301h168l-104 -301h-207z" />
<glyph unicode="&#x164;" horiz-adv-x="1146" d="M61 1260v198h1024v-198h-401v-1260h-221v1260h-402zM221 1929h174l178 -198l179 198h174l-264 -330h-177z" />
<glyph unicode="&#x165;" horiz-adv-x="700" d="M72 860v160h118v315h209v-315h201v-160h-201v-561q0 -57 28 -89t87 -32h86v-178h-125q-74 0 -127 24.5t-88 64.5t-52.5 92t-17.5 108v571h-118zM561 1198v379h197v-217z" />
<glyph unicode="&#x16e;" horiz-adv-x="1382" d="M168 492v966h221v-956q0 -147 82 -231.5t219 -84.5t220 84t83 232v956h221v-966q0 -113 -39.5 -206t-110.5 -159t-167 -102.5t-207 -36.5t-207 36.5t-165.5 102.5t-109.5 159t-40 206zM434 1808q0 53 20.5 99.5t55.5 81t81 55t99 20.5t99.5 -20.5t81 -55t55 -81 t20.5 -99.5t-20.5 -99t-55 -81t-81 -55.5t-99.5 -20.5t-99 20.5t-81 55.5t-55.5 81t-20.5 99zM559 1808q0 -53 39 -91t92 -38t92 38t39 91t-39 91t-92 38t-92 -37.5t-39 -91.5z" />
<glyph unicode="&#x16f;" horiz-adv-x="1163" d="M156 375v663h209v-632q0 -121 60 -176.5t148 -55.5q43 0 83 13.5t69 42t46 72.5t17 104v632h209v-1038h-204v104q-53 -59 -126 -87.5t-151 -28.5q-80 0 -144.5 24.5t-111.5 69.5q-59 59 -81.5 132t-22.5 161zM326 1436q0 53 20.5 99t55 81t80.5 55.5t100 20.5 q53 0 99 -20.5t81 -55.5t55.5 -81t20.5 -99t-20.5 -99.5t-55.5 -81t-81 -55t-99 -20.5t-99.5 20.5t-81 55t-55 80.5t-20.5 100zM451 1436q0 -53 38.5 -91t92.5 -38q53 0 92 38t39 91t-39 91t-92 38t-92 -38t-39 -91z" />
<glyph unicode="&#x170;" horiz-adv-x="1382" d="M168 492v966h221v-956q0 -147 82 -231.5t219 -84.5t220 84t83 232v956h221v-966q0 -113 -39.5 -206t-110.5 -159t-167 -102.5t-207 -36.5t-207 36.5t-165.5 102.5t-109.5 159t-40 206zM389 1599l154 332h231l-227 -332h-158zM768 1599l156 332h229l-229 -332h-156z" />
<glyph unicode="&#x171;" horiz-adv-x="1163" d="M156 375v663h209v-632q0 -121 60 -176.5t148 -55.5q43 0 83 13.5t69 42t46 72.5t17 104v632h209v-1038h-204v104q-53 -59 -126 -87.5t-151 -28.5q-80 0 -144.5 24.5t-111.5 69.5q-59 59 -81.5 132t-22.5 161zM281 1227l153 332h232l-228 -332h-157zM659 1227l156 332h229 l-229 -332h-156z" />
<glyph unicode="&#x179;" horiz-adv-x="1130" d="M98 0v190l674 1070h-645v198h905v-180l-678 -1079h678v-199h-934zM459 1599l153 332h232l-228 -332h-157z" />
<glyph unicode="&#x17a;" horiz-adv-x="960" d="M88 0v166l516 686h-487v186h745v-166l-520 -686h520v-186h-774zM375 1227l153 332h232l-228 -332h-157z" />
<glyph unicode="&#x17b;" horiz-adv-x="1130" d="M98 0v190l674 1070h-645v198h905v-180l-678 -1079h678v-199h-934zM455 1642v187h221v-187h-221z" />
<glyph unicode="&#x17c;" horiz-adv-x="960" d="M88 0v166l516 686h-487v186h745v-166l-520 -686h520v-186h-774zM371 1270v186h221v-186h-221z" />
<glyph unicode="&#x17d;" horiz-adv-x="1130" d="M98 0v190l674 1070h-645v198h905v-180l-678 -1079h678v-199h-934zM223 1929h174l178 -198l179 198h174l-264 -330h-177z" />
<glyph unicode="&#x17e;" horiz-adv-x="960" d="M88 0v166l516 686h-487v186h745v-166l-520 -686h520v-186h-774zM137 1556h174l178 -198l179 198h174l-264 -329h-177z" />
<glyph unicode="&#x192;" horiz-adv-x="849" d="M43 -420l186 1061h-168v160h197l68 379q10 55 35.5 107t67.5 92t99.5 64.5t130.5 24.5h129v-178h-120q-59 0 -92 -31.5t-44 -89.5l-65 -368h207v-160h-236l-186 -1061h-209z" />
<glyph unicode="&#x218;" horiz-adv-x="1208" d="M61 180l148 146q80 -80 170 -110t203 -30q143 0 222 58.5t79 165.5q0 100 -58 151q-29 27 -61.5 39t-97.5 23l-172 24q-178 25 -277 117q-106 100 -106 278q0 94 33.5 173t96 136.5t152.5 88t205 30.5q145 0 251.5 -38.5t201.5 -126.5l-142 -140q-68 66 -146.5 89.5 t-170.5 23.5q-129 0 -197.5 -64.5t-68.5 -162.5q0 -41 13 -75t42 -61q57 -51 164 -67l166 -25q102 -16 163.5 -41.5t108.5 -66.5q59 -53 89 -129t30 -170q0 -100 -39 -180t-108.5 -135.5t-166 -84t-210.5 -28.5q-166 0 -289 43t-228 149zM426 -432l143 301h168l-104 -301 h-207z" />
<glyph unicode="&#x219;" horiz-adv-x="1021" d="M66 137l137 137q63 -66 142 -87t157 -21q96 0 161.5 35t65.5 108q0 53 -31.5 85t-107.5 38l-166 14q-147 12 -227 81t-80 206q0 76 30.5 135.5t84 99.5t124 61.5t152.5 21.5q117 0 215 -27t170 -90l-131 -133q-49 41 -115.5 58.5t-140.5 17.5q-94 0 -141.5 -37t-47.5 -97 q0 -47 30 -78.5t114 -39.5l164 -15q147 -12 228 -83t81 -210q0 -82 -33 -143t-90 -103t-137 -62.5t-172 -20.5q-127 0 -235.5 29.5t-200.5 119.5zM334 -432l143 301h168l-104 -301h-207z" />
<glyph unicode="&#x2c6;" horiz-adv-x="1024" d="M160 1227l264 329h176l264 -329h-174l-178 198l-178 -198h-174z" />
<glyph unicode="&#x2c7;" horiz-adv-x="1024" d="M160 1556h174l178 -198l178 198h174l-264 -329h-176z" />
<glyph unicode="&#x2d8;" horiz-adv-x="1280" d="M16 0l535 1458h178l535 -1458h-236l-100 293h-576l-100 -293h-236zM418 481h448l-221 647z" />
<glyph unicode="&#x2d9;" horiz-adv-x="1024" d="M401 1270v186h222v-186h-222z" />
<glyph unicode="&#x2da;" horiz-adv-x="1024" d="M256 1436q0 53 20.5 99t55.5 81t81 55.5t99 20.5t99 -20.5t81 -55.5t55.5 -81t20.5 -99t-20.5 -99.5t-55.5 -81t-81 -55t-99 -20.5t-99 20.5t-81 55t-55.5 80.5t-20.5 100zM381 1436q0 -53 39 -91t92 -38t92 38t39 91t-39 91t-92 38t-92 -38t-39 -91z" />
<glyph unicode="&#x2db;" horiz-adv-x="1024" d="M362 -131h168l144 -301h-207z" />
<glyph unicode="&#x2dc;" horiz-adv-x="1024" d="M160 1374q70 70 117 91.5t96 21.5q45 0 78.5 -12.5t74.5 -36.5q31 -18 56.5 -28.5t56.5 -10.5q25 0 52.5 11t68.5 52l98 -96q-70 -70 -118 -91.5t-95 -21.5q-45 0 -79 12.5t-74 34.5q-29 16 -56.5 27.5t-58.5 11.5q-27 0 -51.5 -9t-67.5 -52z" />
<glyph unicode="&#x2dd;" horiz-adv-x="1024" d="M170 1227l154 332h231l-227 -332h-158zM549 1227l156 332h229l-229 -332h-156z" />
<glyph unicode="&#x401;" horiz-adv-x="1234" d="M190 0v1458h932v-198h-710v-426h606v-197h-606v-438h710v-199h-932zM301 1657v221h188v-221h-188zM743 1657v221h189v-221h-189z" />
<glyph unicode="&#x404;" horiz-adv-x="1323" />
<glyph unicode="&#x410;" horiz-adv-x="1259" d="M6 0l535 1458h178l534 -1458h-235l-100 293h-576l-100 -293h-236zM408 481h448l-221 647z" />
<glyph unicode="&#x411;" horiz-adv-x="1357" d="M190 0v1458h885v-198h-663v-418h368q96 0 177 -27t139.5 -79t91.5 -129t33 -177t-33 -180t-91.5 -135.5t-139 -85t-177.5 -29.5h-590zM412 199h348q117 0 178 62.5t61 160.5t-61 159.5t-178 61.5h-348v-444z" />
<glyph unicode="&#x412;" horiz-adv-x="1357" d="M190 0v1458h568q205 0 322.5 -106.5t117.5 -292.5q0 -59 -17.5 -109.5t-45 -90.5t-62.5 -67.5t-72 -41.5q43 -16 82 -46t70 -71t49.5 -96.5t18.5 -124.5q0 -100 -33 -177t-91.5 -129.5t-139 -79t-177.5 -26.5h-590zM412 199h348q117 0 178 62.5t61 160.5t-61 159.5 t-178 61.5h-348v-444zM412 842h327q106 0 172 53t66 156q0 102 -65.5 155.5t-172.5 53.5h-327v-418z" />
<glyph unicode="&#x413;" horiz-adv-x="1075" d="M190 0v1458h885v-198h-663v-1260h-222z" />
<glyph unicode="&#x414;" horiz-adv-x="1380" d="M10 197h109l461 1261h221l461 -1261h108v-500h-196v303h-967v-303h-197v500zM352 197h678l-313 929h-43z" />
<glyph unicode="&#x415;" horiz-adv-x="1234" d="M190 0v1458h932v-198h-710v-426h606v-197h-606v-438h710v-199h-932z" />
<glyph unicode="&#x416;" horiz-adv-x="2002" d="M6 0l596 776l-524 682h260l457 -598h98v598h221v-598h94l457 598h260l-524 -682l596 -776h-260l-506 664h-117v-664h-221v664h-121l-506 -664h-260z" />
<glyph unicode="&#x417;" horiz-adv-x="1128" d="M82 395h209q6 -117 76.5 -168t195.5 -51q139 0 205 62.5t66 177.5q0 111 -59.5 175t-182.5 64h-53v183h53q113 0 166 60t53 161q0 223 -248 223q-129 0 -187.5 -55.5t-66.5 -151.5h-209q10 186 131 290.5t332 104.5q111 0 196 -29.5t143.5 -82.5t88 -128t29.5 -165 q0 -117 -48 -193.5t-134 -117.5q94 -41 149 -125t55 -219q0 -104 -33.5 -183.5t-96 -132.5t-151.5 -79.5t-198 -26.5q-104 0 -192 23.5t-150.5 73.5t-99.5 127t-39 183z" />
<glyph unicode="&#x418;" horiz-adv-x="1499" d="M190 0v1458h222v-1083l675 1083h222v-1458h-222v1081l-675 -1081h-222z" />
<glyph unicode="&#x419;" horiz-adv-x="1499" d="M190 0v1458h222v-1083l675 1083h222v-1458h-222v1081l-675 -1081h-222zM412 1939h151q10 -72 61.5 -108.5t127.5 -36.5t127 37t61 108h147q-10 -154 -100 -225.5t-235 -71.5t-237.5 72t-102.5 225z" />
<glyph unicode="&#x41a;" horiz-adv-x="1345" d="M190 0v1458h222v-733l594 733h270l-473 -571l522 -887h-260l-410 719l-243 -295v-424h-222z" />
<glyph unicode="&#x41b;" horiz-adv-x="1265" d="M0 0l535 1458h194l537 -1458h-236l-385 1126h-18l-391 -1126h-236z" />
<glyph unicode="&#x41c;" horiz-adv-x="1667" d="M190 0v1458h222l426 -907l417 907h222v-1458h-222v975l-335 -711h-164l-344 711v-975h-222z" />
<glyph unicode="&#x41d;" horiz-adv-x="1415" d="M190 0v1458h222v-622h592v622h221v-1458h-221v637h-592v-637h-222z" />
<glyph unicode="&#x41e;" horiz-adv-x="1323" d="M137 729q0 104 2 189.5t15.5 155t42 129t82.5 112.5q76 76 171 115.5t212 39.5t213 -39.5t172 -115.5q53 -53 81.5 -112.5t41 -129t14.5 -155t2 -189.5t-2 -189t-14.5 -155t-41 -129t-81.5 -113q-76 -76 -172.5 -115.5t-212.5 -39.5q-117 0 -212.5 40t-170.5 115 q-53 53 -82 112.5t-42.5 129.5t-15.5 155t-2 189zM358 729q0 -111 3.5 -183.5t12.5 -122.5t26.5 -84t43.5 -63q39 -41 95.5 -65.5t122.5 -24.5t122 25t95 65q27 29 44 63t26 84t12.5 122.5t3.5 183.5t-3.5 183.5t-12.5 122.5t-26.5 84t-43.5 63q-39 41 -95.5 65.5 t-121.5 24.5q-66 0 -122.5 -24.5t-95.5 -65.5q-27 -29 -44 -63t-26 -84t-12.5 -122.5t-3.5 -183.5z" />
<glyph unicode="&#x41f;" horiz-adv-x="1415" d="M190 0v1458h1035v-1458h-221v1260h-592v-1260h-222z" />
<glyph unicode="&#x420;" horiz-adv-x="1288" d="M190 0v1458h553q106 0 192.5 -33.5t148 -92t94 -140.5t32.5 -176q0 -96 -32.5 -177t-94 -139.5t-147.5 -92.5t-193 -34h-331v-573h-222zM412 774h319q117 0 187.5 62.5t70.5 179.5t-70.5 180.5t-187.5 63.5h-319v-486z" />
<glyph unicode="&#x421;" horiz-adv-x="1286" d="M137 729q0 104 2 189.5t15.5 155t42 129t82.5 112.5q76 76 172 115.5t211 39.5q203 0 342 -114.5t178 -333.5h-226q-27 111 -99.5 180.5t-194.5 69.5q-66 0 -121.5 -23.5t-94.5 -64.5q-27 -29 -44 -63t-26 -84t-13.5 -123.5t-4.5 -184.5t4.5 -184.5t13.5 -123.5t26.5 -84 t43.5 -63q39 -41 94.5 -64.5t121.5 -23.5q123 0 196.5 70t99.5 180h224q-18 -109 -64.5 -192.5t-115 -141t-155.5 -86t-185 -28.5q-115 0 -211.5 40t-171.5 115q-53 53 -82 112.5t-42.5 129.5t-15.5 155t-2 189z" />
<glyph unicode="&#x422;" horiz-adv-x="1046" d="M10 1260v198h1024v-198h-401v-1260h-221v1260h-402z" />
<glyph unicode="&#x423;" horiz-adv-x="995" d="M0 1458h229l306 -743l303 743h229l-473 -1161q-35 -84 -78 -141.5t-95 -92t-111.5 -49t-125.5 -14.5h-80v199h80q33 0 61.5 9t54.5 32.5t50.5 61.5t52.5 95l17 35z" />
<glyph unicode="&#x424;" horiz-adv-x="1562" d="M82 729q0 174 50 283.5t133 173t189.5 87t217.5 23.5v162h221v-162q111 0 216 -23.5t188 -87t133.5 -173t50.5 -283.5t-50.5 -284.5t-133.5 -174t-188 -88t-216 -24.5v-158h-221v158q-111 0 -217.5 23.5t-189.5 87t-133 175t-50 285.5zM303 729q0 -74 15.5 -130t42 -97 t59.5 -68.5t67 -46.5q82 -41 185 -45v774q-102 -4 -185 -45q-35 -18 -67.5 -46t-59 -69t-42 -97t-15.5 -130zM893 342q6 0 34.5 2t69.5 13.5t87 34t85 65.5t65 109.5t26 162.5t-26 162.5t-65 109.5t-85 66t-87 34t-69.5 13t-34.5 2v-774z" />
<glyph unicode="&#x425;" horiz-adv-x="1142" d="M0 0l451 748l-422 710h254l286 -522l289 522h254l-422 -710l453 -748h-256l-318 559l-315 -559h-254z" />
<glyph unicode="&#x426;" horiz-adv-x="1511" d="M190 0v1458h222v-1259h592v1259h221v-1259h196v-500h-196v301h-1035z" />
<glyph unicode="&#x427;" horiz-adv-x="1269" d="M109 1040v418h221v-405q0 -143 71.5 -217t194.5 -74h262v696h221v-1458h-221v565h-262q-102 0 -190.5 32t-155 92.5t-104 148.5t-37.5 202z" />
<glyph unicode="&#x428;" horiz-adv-x="2076" d="M190 0v1458h222v-1259h514v1259h225v-1259h514v1259h221v-1458h-1696z" />
<glyph unicode="&#x429;" horiz-adv-x="2172" d="M190 0v1458h222v-1259h514v1259h225v-1259h514v1259h221v-1259h197v-500h-197v301h-1696z" />
<glyph unicode="&#x42a;" horiz-adv-x="1449" d="M33 1257v201h516v-616h369q96 0 177 -27t139 -79t91 -129t33 -177t-33 -180t-91 -135.5t-139 -85t-177 -29.5h-590v1257h-295zM549 199h348q117 0 178.5 62.5t61.5 160.5t-61.5 159.5t-178.5 61.5h-348v-444z" />
<glyph unicode="&#x42b;" horiz-adv-x="1824" d="M190 0v1458h222v-616h368q96 0 177 -27t139.5 -79t91.5 -129t33 -177t-33 -180t-91.5 -135.5t-139 -85t-177.5 -29.5h-590zM412 199h348q117 0 178 62.5t61 160.5t-61 159.5t-178 61.5h-348v-444zM1413 0v1458h221v-1458h-221z" />
<glyph unicode="&#x42c;" horiz-adv-x="1312" d="M190 0v1458h222v-616h368q96 0 177 -27t139.5 -79t91.5 -129t33 -177t-33 -180t-91.5 -135.5t-139 -85t-177.5 -29.5h-590zM412 199h348q117 0 178 62.5t61 160.5t-61 159.5t-178 61.5h-348v-444z" />
<glyph unicode="&#x42d;" horiz-adv-x="1320" d="M137 434h225q27 -111 101 -179.5t194 -68.5q66 0 121.5 23.5t93.5 64.5q25 25 40.5 53.5t25.5 68.5t15 94.5t8 134.5h-343v200h343q-2 82 -7.5 138.5t-15.5 96.5t-25.5 68.5t-40.5 53.5q-39 41 -94 65.5t-121 24.5q-121 0 -193.5 -69.5t-98.5 -180.5h-228 q39 219 179.5 333.5t340.5 114.5q115 0 211 -39.5t174 -115.5q53 -55 82 -113.5t42.5 -128t15.5 -154.5t2 -190q0 -106 -2 -190t-15.5 -155t-42 -129t-82.5 -112q-78 -76 -174 -115.5t-211 -39.5q-98 0 -185 28.5t-154.5 86t-114.5 140.5t-66 191z" />
<glyph unicode="&#x42e;" horiz-adv-x="1818" d="M190 0v1458h224v-631h217q0 84 5 153t19.5 127t43 109.5t75.5 98.5q76 76 171 115.5t212 39.5t213 -39.5t172 -115.5q53 -55 82 -113.5t41 -128t14 -154.5t2 -190q0 -106 -2 -190t-14 -155t-41 -129t-82 -112q-76 -76 -172 -115.5t-213 -39.5t-212 40t-171 115 q-47 47 -75.5 97.5t-43 109t-19.5 127t-5 152.5h-217v-629h-224zM854 729q0 -111 3 -184.5t12.5 -123.5t26.5 -83t44 -62q39 -41 95.5 -65.5t121.5 -24.5q66 0 121 24.5t94 65.5q27 29 44.5 62t27.5 83t13 123.5t3 184.5t-3 183.5t-13 122.5t-27.5 83t-44.5 62 q-39 41 -94 65.5t-121 24.5t-122 -24.5t-95 -65.5q-27 -29 -44 -62t-26.5 -83t-12.5 -122.5t-3 -183.5z" />
<glyph unicode="&#x42f;" horiz-adv-x="1368" d="M115 0l336 645q-123 35 -207 132t-84 255q0 92 31.5 171t91 135.5t142.5 88t187 31.5h566v-1458h-222v614h-276l-307 -614h-258zM381 1030q0 -109 68.5 -168t179.5 -59h327v457h-327q-111 0 -179.5 -60.5t-68.5 -169.5z" />
<glyph unicode="&#x430;" horiz-adv-x="1085" d="M88 305q0 131 89 215t269 84h275v74q0 98 -52.5 146t-174.5 48q-86 0 -135.5 -22.5t-92.5 -77.5l-137 129q74 86 159 118t214 32q428 0 428 -357v-694h-205v94q-57 -57 -118.5 -81.5t-157.5 -24.5q-98 0 -165 23.5t-114 70.5q-82 86 -82 223zM291 309q0 -72 46 -109.5 t144 -37.5q59 0 106.5 9t88.5 50q45 45 45 154v84h-244q-92 0 -139 -39t-47 -111z" />
<glyph unicode="&#x431;" horiz-adv-x="1099" d="M117 518q0 158 4 273.5t14 183.5t34 127t56 106q31 45 61.5 71t63.5 48q41 27 89 44.5t102 27.5q39 6 59.5 14t30.5 19q27 16 26 57h234q-6 -86 -62 -135q-29 -23 -76.5 -43.5t-117.5 -34.5q-113 -23 -162 -47q-33 -16 -59.5 -42t-40.5 -50q-16 -29 -30.5 -73t-16.5 -97 q27 23 63 41q31 16 72 28.5t90 12.5q104 0 182 -34t127 -87q76 -78 99.5 -178.5t23.5 -231.5t-23.5 -231.5t-99.5 -177.5q-49 -53 -127 -87t-182 -34q-109 0 -184.5 33.5t-126.5 87.5q-76 78 -99.5 178t-23.5 231zM326 518q0 -86 11 -160.5t58 -121.5q33 -29 71 -45.5 t85 -16.5q88 1 149 62q49 47 61.5 121.5t12.5 160.5t-12 163t-62 124q-61 57 -149 57q-47 0 -85 -14t-71 -43q-47 -47 -58 -125t-11 -162z" />
<glyph unicode="&#x432;" horiz-adv-x="1112" d="M166 0v1038h475q145 0 229 -75.5t84 -208.5q0 -86 -44 -141t-97 -78q59 -25 108.5 -83.5t49.5 -158.5q0 -145 -88 -219t-228 -74h-489zM375 168h241q70 0 108 39t38 98q0 61 -38 101t-108 40h-241v-278zM375 614h227q66 0 104.5 33t38.5 96q0 61 -38.5 94t-104.5 33h-227 v-256z" />
<glyph unicode="&#x433;" horiz-adv-x="858" d="M166 0v1038h692v-186h-483v-852h-209z" />
<glyph unicode="&#x434;" horiz-adv-x="1140" d="M16 186h90l310 852h309l309 -852h90v-422h-168v236h-772v-236h-168v422zM324 186h501l-231 666h-37z" />
<glyph unicode="&#x435;" horiz-adv-x="1103" d="M113 520q0 254 119.5 392.5t320.5 138.5q104 0 186 -37t138.5 -102.5t86 -157.5t29.5 -203v-92h-674q0 -135 68 -213t197 -78q88 0 142 25.5t110 80.5l133 -124q-41 -41 -81 -71t-86 -50.5t-100.5 -30.5t-121.5 -10q-98 0 -183.5 27.5t-148 90t-99 165t-36.5 249.5z M319 604h467q-2 47 -7 77t-21 64q-25 59 -78 95.5t-127 36.5t-128 -36t-79 -96q-16 -35 -20 -64.5t-7 -76.5z" />
<glyph unicode="&#x436;" horiz-adv-x="1585" d="M0 0l424 553l-373 485h252l322 -417h61v417h209v-417h61l324 417h252l-371 -485l424 -553h-256l-362 475h-72v-475h-209v475h-68l-364 -475h-254z" />
<glyph unicode="&#x437;" horiz-adv-x="966" d="M45 260l213 31q16 -72 66.5 -104.5t126.5 -30.5q102 2 148 38.5t46 106.5t-42 109t-130 39h-41v167h35q78 0 114.5 36t36.5 98q0 129 -172 133q-72 2 -110.5 -33t-61.5 -94l-200 39q20 121 117.5 188.5t254.5 67.5q184 0 280.5 -80t96.5 -209q0 -82 -27.5 -127t-62.5 -68 q-39 -26 -88 -32q57 -10 103 -39q39 -25 70.5 -74t31.5 -133q0 -147 -106.5 -224t-292.5 -77q-82 0 -151 15t-122 48t-87 85t-46 124z" />
<glyph unicode="&#x438;" horiz-adv-x="1218" d="M166 0v1038h209v-708l467 708h209v-1038h-209v709l-467 -709h-209z" />
<glyph unicode="&#x439;" horiz-adv-x="1218" d="M166 0v1038h209v-708l467 708h209v-1038h-209v709l-467 -709h-209zM266 1458h152q10 -72 61 -108.5t127 -36.5t127 36.5t62 108.5h147q-10 -154 -100 -225.5t-236 -71.5q-145 0 -237.5 72t-102.5 225z" />
<glyph unicode="&#x43a;" horiz-adv-x="1077" d="M166 0v1038h209v-479l403 479h254l-360 -407l405 -631h-258l-291 479l-153 -174v-305h-209z" />
<glyph unicode="&#x43b;" horiz-adv-x="991" d="M-10 0l379 1038h256l376 -1038h-213l-288 852l-295 -852h-215z" />
<glyph unicode="&#x43c;" horiz-adv-x="1347" d="M166 0v1038h237l271 -592l270 592h238v-1038h-209v653l-223 -465h-152l-223 465v-653h-209z" />
<glyph unicode="&#x43d;" horiz-adv-x="1175" d="M166 0v1038h209v-426h426v426h209v-1038h-209v426h-426v-426h-209z" />
<glyph unicode="&#x43e;" horiz-adv-x="1038" d="M86 520q0 131 24.5 230.5t98.5 177.5q51 53 127 88t182 35t183 -35t128 -88q74 -78 98.5 -177.5t24.5 -230.5q0 -133 -24.5 -232.5t-98.5 -176.5q-51 -53 -127.5 -88t-183.5 -35q-106 0 -182 34.5t-127 88.5q-74 78 -98.5 177t-24.5 232zM295 520q0 -86 12 -161.5 t60 -122.5q61 -61 151 -62q92 0 154 62q47 47 59 122.5t12 161.5t-12 162t-59 123q-59 59 -154 59q-92 0 -151 -59q-47 -47 -59.5 -123t-12.5 -162z" />
<glyph unicode="&#x43f;" horiz-adv-x="1175" d="M166 0v1038h844v-1038h-209v852h-426v-852h-209z" />
<glyph unicode="&#x440;" horiz-adv-x="1132" d="M166 -420v1458h205v-110q59 72 123.5 97.5t150.5 25.5q78 0 144.5 -25t109.5 -68q39 -39 62.5 -90t36 -108.5t15.5 -119t3 -120.5t-3 -120.5t-15.5 -120t-36 -109.5t-62.5 -90q-43 -43 -108.5 -67.5t-143.5 -24.5q-84 0 -149.5 25.5t-122.5 92.5v-526h-209zM375 520 q0 -70 7 -132t30.5 -110.5t65.5 -76t114 -27.5q70 0 113 27.5t65.5 76t29.5 110.5t7 132t-7 132.5t-29.5 109.5t-65.5 74.5t-113 27.5q-72 0 -114 -27.5t-65.5 -74.5t-30.5 -109.5t-7 -132.5z" />
<glyph unicode="&#x441;" horiz-adv-x="993" d="M113 520q0 145 40 246.5t104.5 164t147 91.5t170.5 29q109 0 189 -34t154 -112l-144 -139q-49 53 -93 75.5t-106 22.5q-123 0 -192 -92q-35 -43 -48 -101.5t-13 -150.5t13 -151.5t48 -102.5q70 -92 192 -92q61 0 105.5 22.5t93.5 75.5l144 -137q-74 -78 -154 -112.5 t-189 -34.5q-88 0 -170.5 28.5t-147 92t-104.5 165t-40 246.5z" />
<glyph unicode="&#x442;" horiz-adv-x="868" d="M10 852v186h848v-186h-319v-852h-209v852h-320z" />
<glyph unicode="&#x443;" horiz-adv-x="919" d="M-14 1038h221l248 -731l241 731h224l-459 -1245q-29 -82 -76 -129q-43 -43 -98.5 -59.5t-114.5 -16.5h-84v189h53q66 0 96.5 23.5t53.5 86.5l57 162z" />
<glyph unicode="&#x444;" horiz-adv-x="1511" d="M117 518q0 158 46 259.5t120.5 159.5t171 79.5t196.5 21.5v357h209v-357q100 0 197.5 -21.5t172.5 -79.5t121 -159.5t46 -259.5t-46 -258t-121 -158.5t-172 -80t-198 -21.5v-356h-209v356q-100 0 -196.5 21.5t-171 80t-120.5 158.5t-46 258zM326 518q0 -86 22.5 -145.5 t57 -97t74.5 -58t77 -30t62.5 -11.5t31.5 -2v690q-6 0 -31.5 -2t-62.5 -11t-77 -29.5t-74.5 -59.5t-57 -98.5t-22.5 -145.5zM860 174q6 0 33 2t62.5 11.5t76.5 30t76 58t57.5 97t22.5 145.5t-22.5 145.5t-57.5 98.5t-76 59.5t-76.5 29.5t-62.5 11t-33 2v-690z" />
<glyph unicode="&#x445;" horiz-adv-x="937" d="M0 0l356 530l-342 508h252l205 -338l203 338h252l-340 -508l354 -530h-252l-217 354l-219 -354h-252z" />
<glyph unicode="&#x446;" horiz-adv-x="1259" d="M166 0v1038h209v-854h428v854h207v-854h168v-417h-168v233h-844z" />
<glyph unicode="&#x447;" horiz-adv-x="993" d="M88 735v303h209v-243q0 -104 51 -156.5t139 -52.5h131v452h209v-1038h-209v399h-182q-72 0 -135 21.5t-110.5 64.5t-75 105.5t-27.5 144.5z" />
<glyph unicode="&#x448;" horiz-adv-x="1687" d="M166 0v1038h209v-852h364v852h209v-852h365v852h209v-1038h-1356z" />
<glyph unicode="&#x449;" horiz-adv-x="1771" d="M166 0v1038h209v-852h364v852h209v-852h365v852h209v-852h168v-417h-168v231h-1356z" />
<glyph unicode="&#x44a;" horiz-adv-x="1193" d="M45 852v186h438v-374h244q154 0 252 -82t98 -242q0 -78 -25.5 -141.5t-72.5 -107.5t-111.5 -67.5t-140.5 -23.5h-453v852h-229zM483 174h213q86 0 129 45t43 117q0 70 -43 111.5t-129 41.5h-213v-315z" />
<glyph unicode="&#x44b;" horiz-adv-x="1521" d="M166 0v1038h209v-374h243q154 0 252.5 -82t98.5 -242q0 -78 -25.5 -141.5t-73 -107.5t-112 -67.5t-140.5 -23.5h-452zM375 174h213q86 0 129 45t43 117q0 70 -43 111.5t-129 41.5h-213v-315zM1143 0v1038h213v-1038h-213z" />
<glyph unicode="&#x44c;" horiz-adv-x="1085" d="M166 0v1038h209v-374h243q154 0 252.5 -82t98.5 -242q0 -78 -25.5 -141.5t-73 -107.5t-112 -67.5t-140.5 -23.5h-452zM375 174h213q86 0 129 45t43 117q0 70 -43 111.5t-129 41.5h-213v-315z" />
<glyph unicode="&#x44d;" horiz-adv-x="987" d="M66 135l143 137q49 -53 93 -75.5t106 -22.5q123 0 192 92q45 59 57 160h-268v186h268q-6 53 -20 91t-37 69q-70 92 -192 92q-61 0 -105.5 -22.5t-93.5 -75.5l-143 139q74 78 153.5 112t188.5 34q88 0 171 -29t147.5 -91.5t104 -163.5t39.5 -247q0 -145 -39.5 -246.5 t-104 -165t-147.5 -92t-171 -28.5q-109 0 -189 34.5t-153 112.5z" />
<glyph unicode="&#x44e;" horiz-adv-x="1536" d="M166 0v1038h209v-407h151q10 92 36 164.5t83 132.5q51 53 127 88t182 35t183.5 -35t128.5 -88q74 -78 98.5 -177.5t24.5 -230.5q0 -133 -25 -232.5t-98 -176.5q-51 -53 -128 -88t-184 -35q-106 0 -182 34.5t-127 88.5q-66 68 -91.5 151.5t-29.5 194.5h-149v-457h-209z M731 520q0 -86 12.5 -161.5t59.5 -122.5q61 -61 151 -62q93 1 154 62q47 47 59.5 122.5t12.5 161.5t-12.5 162t-59.5 123q-59 59 -154 59q-92 0 -151 -59q-47 -47 -59.5 -123t-12.5 -162z" />
<glyph unicode="&#x44f;" horiz-adv-x="1103" d="M88 0l219 465q-190 74 -190 268q0 141 92 223q47 43 110.5 62.5t141.5 19.5h477v-1038h-209v432h-219l-191 -432h-231zM309 741q0 -63 49 -116q47 -47 154 -47h217v315h-235q-43 0 -78 -9.5t-58 -31.5q-49 -39 -49 -111z" />
<glyph unicode="&#x451;" horiz-adv-x="1103" d="M113 520q0 254 119.5 392.5t320.5 138.5q104 0 186 -37t138.5 -102.5t86 -157.5t29.5 -203v-92h-674q0 -135 68 -213t197 -78q88 0 142 25.5t110 80.5l133 -124q-41 -41 -81 -71t-86 -50.5t-100.5 -30.5t-121.5 -10q-98 0 -183.5 27.5t-148 90t-99 165t-36.5 249.5z M236 1237v221h188v-221h-188zM319 604h467q-2 47 -7 77t-21 64q-25 59 -78 95.5t-127 36.5t-128 -36t-79 -96q-16 -35 -20 -64.5t-7 -76.5zM678 1237v221h188v-221h-188z" />
<glyph unicode="&#x2000;" horiz-adv-x="1032" />
<glyph unicode="&#x2001;" horiz-adv-x="2064" />
<glyph unicode="&#x2002;" horiz-adv-x="1032" />
<glyph unicode="&#x2003;" horiz-adv-x="2064" />
<glyph unicode="&#x2004;" horiz-adv-x="688" />
<glyph unicode="&#x2005;" horiz-adv-x="516" />
<glyph unicode="&#x2006;" horiz-adv-x="344" />
<glyph unicode="&#x2007;" horiz-adv-x="344" />
<glyph unicode="&#x2008;" horiz-adv-x="258" />
<glyph unicode="&#x2009;" horiz-adv-x="412" />
<glyph unicode="&#x200a;" horiz-adv-x="114" />
<glyph unicode="&#x2010;" horiz-adv-x="872" d="M137 471v195h598v-195h-598z" />
<glyph unicode="&#x2011;" horiz-adv-x="872" d="M137 471v195h598v-195h-598z" />
<glyph unicode="&#x2012;" horiz-adv-x="872" d="M137 471v195h598v-195h-598z" />
<glyph unicode="&#x2013;" d="M104 471v195h883v-195h-883z" />
<glyph unicode="&#x2014;" horiz-adv-x="1990" d="M137 473v199h1716v-199h-1716z" />
<glyph unicode="&#x2018;" horiz-adv-x="548" d="M160 1245v213l229 191v-404h-229z" />
<glyph unicode="&#x2019;" horiz-adv-x="548" d="M160 1057v401h229v-215z" />
<glyph unicode="&#x201a;" horiz-adv-x="546" d="M160 -188v403h229v-215z" />
<glyph unicode="&#x201c;" horiz-adv-x="940" d="M160 1245v213l229 191v-404h-229zM551 1245v213l229 191v-404h-229z" />
<glyph unicode="&#x201d;" horiz-adv-x="940" d="M160 1057v401h229v-215zM551 1057v401h229v-215z" />
<glyph unicode="&#x201e;" horiz-adv-x="942" d="M160 -188v403h229v-215zM551 -188v403h229v-215z" />
<glyph unicode="&#x2020;" horiz-adv-x="1210" d="M133 874v187h367v397h209v-397h368v-187h-368v-874h-209v874h-367z" />
<glyph unicode="&#x2021;" horiz-adv-x="1210" d="M133 -23v189h367v708h-367v187h367v397h209v-397h368v-187h-368v-708h368v-189h-368v-397h-209v397h-367z" />
<glyph unicode="&#x2022;" horiz-adv-x="1048" d="M190 684q0 70 27 130t72 105.5t105.5 72t129.5 26.5q70 0 130.5 -26.5t105.5 -72t71.5 -105.5t26.5 -130t-26.5 -130t-71.5 -105.5t-105.5 -72t-130.5 -26.5t-130 26.5t-105 72t-72 105.5t-27 130z" />
<glyph unicode="&#x2026;" horiz-adv-x="1644" d="M160 0v240h239v-240h-239zM702 0v240h240v-240h-240zM1245 0v240h240v-240h-240z" />
<glyph unicode="&#x202f;" horiz-adv-x="412" />
<glyph unicode="&#x2030;" horiz-adv-x="2449" d="M119 985v207q0 66 22.5 118t61.5 88t91 55.5t112 19.5q59 0 111 -19.5t91 -55.5t61.5 -88.5t22.5 -117.5v-207q0 -66 -22.5 -118t-61.5 -88t-91 -54t-111 -18t-111.5 18t-91.5 54t-61.5 88.5t-22.5 117.5zM276 991q0 -145 130 -145q66 0 97.5 38t31.5 107v195 q0 70 -32 108.5t-97 38.5q-66 0 -98 -38t-32 -109v-195zM434 0l688 1458h166l-686 -1458h-168zM1032 266v207q0 66 22.5 118t61.5 88t91.5 55.5t111.5 19.5t111.5 -19.5t91.5 -55.5t61.5 -88t22.5 -118v-207q0 -66 -22.5 -118t-61.5 -87.5t-91.5 -55t-111.5 -19.5 t-111.5 19.5t-91.5 55t-61.5 88t-22.5 117.5zM1190 272q0 -72 31.5 -109.5t97.5 -37.5t97.5 39t31.5 108v195q0 70 -32 108.5t-97 38.5q-66 0 -97.5 -37.5t-31.5 -109.5v-195zM1757 266v207q0 66 22.5 118t61.5 88t91.5 55.5t111.5 19.5t111.5 -19.5t91.5 -55.5t61.5 -88 t22.5 -118v-207q0 -66 -22.5 -118t-61.5 -87.5t-91.5 -55t-111.5 -19.5t-111.5 19.5t-91.5 55t-61.5 88t-22.5 117.5zM1915 272q0 -72 31.5 -109.5t97.5 -37.5t97.5 39t31.5 108v195q0 70 -32 108.5t-97 38.5q-66 0 -97.5 -37.5t-31.5 -109.5v-195z" />
<glyph unicode="&#x2039;" horiz-adv-x="694" d="M76 557l471 469v-252l-219 -217l219 -219v-252z" />
<glyph unicode="&#x203a;" horiz-adv-x="694" d="M147 86v252l222 219l-222 217v252l474 -469z" />
<glyph unicode="&#x205f;" horiz-adv-x="516" />
<glyph unicode="&#x20ac;" horiz-adv-x="1394" d="M88 508v137h139v176h-139v137h145q8 115 36 200t100 157q76 76 171 115.5t210 39.5q100 0 187 -29.5t155.5 -86t114.5 -140.5t65 -192h-225q-27 111 -101 181.5t-196 70.5q-66 0 -120.5 -24.5t-94.5 -65.5q-39 -41 -55.5 -89t-22.5 -137h374v-137h-382v-176h382v-137 h-374q6 -92 22.5 -142.5t55.5 -91.5q41 -41 95 -65.5t120 -24.5q123 0 197.5 71t101.5 181h223q-18 -109 -65.5 -192.5t-116 -140t-155.5 -86t-185 -29.5q-115 0 -210.5 40t-170.5 115q-74 74 -100.5 160t-35.5 205h-145z" />
<glyph unicode="&#x2122;" horiz-adv-x="1808" d="M84 1317v141h625v-141h-236v-733h-156v733h-233zM854 584v874h158l256 -497l258 497h157v-874h-157v571l-185 -367h-145l-184 367v-571h-158z" />
<glyph unicode="&#x2212;" d="M104 471v195h883v-195h-883z" />
<glyph unicode="&#xe000;" horiz-adv-x="1034" d="M0 0v1034h1034v-1034h-1034z" />
</font>
</defs>
</svg>
